<?xml version="1.0" encoding="utf-8"?>
<!-- Generator: Adobe Illustrator 25.1.0, SVG Export Plug-In . SVG Version: 6.00 Build 0)  -->
<svg version="1.1" id="レイヤー_1" xmlns="http://www.w3.org/2000/svg" xmlns:xlink="http://www.w3.org/1999/xlink" x="0px"
	 y="0px" viewBox="0 0 709.1 30.79" style="enable-background:new 0 0 709.1 30.79;" xml:space="preserve">
<g>
	<path d="M19.68,5.4c-1.38,0-2.1,1.14-2.61,2.58l-6.78,18.9H9.63L3.15,7.74C2.76,6.57,1.92,5.4,0.57,5.4H0V4.41h9.27V5.4h-1.2
		c-1.17,0-1.41,0.54-1.41,1.26c0,0.45,0.12,0.96,0.15,1.05l4.53,13.38l4.71-13.11c0.27-0.78,0.36-1.17,0.36-1.44
		c0-0.69-0.72-1.14-1.41-1.14h-1.53V4.41h6.99V5.4H19.68z"/>
	<path d="M37.64,26.31l-5.4-10.62H29.6v7.59c0,1.38,0.54,2.07,2.13,2.07h0.96v0.96H23v-0.96h0.96c1.5,0,2.13-0.6,2.13-2.07V7.47
		c0-1.35-0.51-2.07-2.13-2.07H23V4.41h11.82c4.65,0,7.29,2.04,7.29,5.28c0,1.83-0.93,3.21-1.98,4.08c-1.41,1.17-2.76,1.47-3.99,1.74
		l3.57,7.02c1.26,2.46,2.28,2.82,3.48,2.82h0.42v0.96H37.64z M33.83,5.4h-2.1c-1.65,0-2.13,0.63-2.13,2.07v7.26h4.23
		c3.12,0,4.41-2.28,4.41-5.07C38.24,6.84,36.71,5.4,33.83,5.4z"/>
	<path d="M79.64,10.23H60.08c-0.12,8.04-0.21,13.8-7.32,18.9l-0.12-0.21c3.84-4.83,4.2-9.96,4.2-15.48c0-1.32-0.03-2.85-0.06-3.42
		c-1.92,1.29-3.27,1.89-3.96,2.22l-0.15-0.21c2.88-2.28,5.04-5.01,6.93-8.34c0.84-1.53,0.9-1.98,0.96-2.88l4.11,1.44
		c0.12,0.03,0.42,0.15,0.42,0.45c0,0.3-0.57,0.54-1.29,0.75c-0.45,0.57-0.63,0.78-0.96,1.17h4.44l1.08-1.02
		c0.15-0.15,0.42-0.45,0.66-0.45c0.21,0,0.48,0.21,0.57,0.3l2.37,1.83c0.21,0.15,0.36,0.33,0.36,0.54c0,0.48-0.48,0.57-1.32,0.78
		c-0.36,0.09-0.81,0.3-1.35,0.72c-0.45,0.36-2.49,1.89-2.91,2.19h8.28l1.41-1.83c0.09-0.12,0.24-0.39,0.48-0.39
		c0.18,0,0.42,0.21,0.57,0.33l2.31,1.83c0.12,0.09,0.3,0.27,0.3,0.45C80.09,10.2,79.85,10.23,79.64,10.23z M62.18,5.34
		c-1.35,1.47-2.46,2.46-3.75,3.48l1.71,0.69h5.31c1.11-1.83,1.47-2.94,1.83-4.17H62.18z M78.56,27.42c-1.11,0.63-3,0.84-7.38,0.84
		c-7.74,0-8.61-0.33-8.61-3.9c0-2.22,0.03-5.79,0-8.01c0-1.98-0.09-2.88-0.36-4.2l3.87,1.5h5.34l0.87-1.14
		c0.12-0.15,0.27-0.42,0.54-0.42c0.18,0,0.39,0.15,0.51,0.24l2.1,1.53c0.12,0.09,0.36,0.27,0.36,0.48c0,0.42-0.54,0.66-1.23,1.02
		c0,4.95-0.09,5.31-0.54,5.97c-0.81,1.17-2.28,1.47-3.75,1.56c-0.03-1.74-0.96-2.82-2.43-3.48l0.06-0.24
		c0.57,0.06,1.23,0.15,2.13,0.15c1.44,0,1.59,0,1.59-0.9c0-0.63,0.03-3.09,0.03-4.05h-5.94c-0.03,2.31-0.06,6.99-0.06,9.24
		c0,0.75,0,1.41,0.81,1.56c0.48,0.09,3.36,0.09,3.96,0.09c3.24,0,5.25-0.03,6.03-0.81c0.24-0.27,0.54-0.54,1.41-4.11h0.24
		c0.48,3.18,0.93,3.66,1.38,4.05c0.27,0.24,0.54,0.48,0.54,0.78C80.03,26.16,79.34,26.97,78.56,27.42z"/>
	<path d="M92.24,5.16c-1.14,1.98-2.52,3.87-3.9,5.73c1.53,1.29,2.19,1.92,2.73,2.85c0.87,1.5,1.23,3,1.23,4.17
		c0,1.2-0.51,2.82-1.68,3.75c-0.84,0.69-1.74,0.84-2.28,0.96c-0.06-0.66-0.21-2.43-1.65-3.63c0,0.93,0.03,5.37,0.03,6.39
		c0,1.71,0,1.89-0.33,2.28c-0.36,0.39-1.05,0.6-1.56,0.6c-1.17,0-1.17-0.75-1.17-1.23c0-0.06,0.03-0.15,0.03-0.21
		c0.3-9.6,0.3-9.84,0.3-16.71c0-5.82-0.09-6.96-0.39-8.76l3.57,1.62h2.07l0.87-1.08c0.12-0.12,0.33-0.33,0.48-0.33
		c0.18,0,0.39,0.09,0.57,0.27l2.16,1.86c0.12,0.09,0.33,0.33,0.33,0.54C93.65,4.74,92.72,5.01,92.24,5.16z M87.47,11.1
		c1.17-3.6,1.47-5.31,1.8-7.41h-2.55c0,2.34-0.03,12.78-0.03,14.91c0.42,0.12,0.84,0.21,1.29,0.21c0.87,0,1.56-0.45,1.56-2.28
		C89.54,16.11,89.54,13.62,87.47,11.1z M107.45,28.35c-2.58-1.23-4.65-2.91-6.6-8.31c-1.2,4.89-5.28,7.47-11.58,8.34l-0.03-0.24
		c5.43-1.44,8.01-5.34,8.79-8.85h-2.1c0.21,1.89-1.74,1.89-1.92,1.89c-0.96,0-0.96-0.72-0.96-1.05c0-0.54,0.06-2.91,0.06-3.42
		c0-2.82-0.06-3.42-0.24-4.62l3.15,1.26h2.43c0.03-0.45,0-2.46,0-2.85c-1.8,0-2.52,0.03-3.45,0.21L94.49,9.6
		c1.83,0.15,3.96,0.18,4.29,0.18h2.34l0.96-1.56c0.09-0.15,0.27-0.36,0.45-0.36c0.21,0,0.42,0.15,0.57,0.33l1.44,1.5
		c0.15,0.15,0.3,0.3,0.3,0.48c0,0.3-0.27,0.33-0.48,0.33h-3c0,0.45-0.03,2.46-0.03,2.85h2.76l0.57-0.81c0.21-0.3,0.3-0.45,0.48-0.45
		s0.33,0.09,0.54,0.24l1.86,1.17c0.27,0.15,0.45,0.3,0.45,0.51c0,0.36-0.36,0.6-1.05,1.05c0,0.33,0.03,3.99,0.03,4.29
		c0,1.11-0.96,1.44-1.92,1.44c-0.87,0-0.9-0.57-0.9-1.5h-3.12c2.31,3.39,5.94,5.52,9.18,5.76v0.24
		C109.16,25.77,107.99,27.03,107.45,28.35z M107.66,11.61c-3.51-1.98-5.52-4.29-7.23-8.22c-1.56,2.46-5.34,6.51-9.72,8.4l-0.06-0.24
		c2.52-1.98,6.42-7.2,6.72-10.8l3.99,1.47c0.12,0.03,0.42,0.18,0.42,0.45c0,0.36-0.48,0.51-0.75,0.57c1.41,1.59,4.29,4.11,9.18,4.95
		v0.24C108.56,9.12,108.11,10.38,107.66,11.61z M95.9,14.07v4.5h2.25c0.18-1.38,0.27-2.79,0.3-4.5H95.9z M104.18,14.07h-2.85
		c-0.06,0.84-0.18,3.87-0.24,4.5h3.09V14.07z"/>
	<path d="M123.12,8.64c-1.86,0-2.49,0.09-3.27,0.21l-0.48-1.11c1.29,0.12,2.97,0.18,4.29,0.18h3.03c-0.09-4.65-0.24-5.37-0.75-6.87
		l4.32,0.96c0.15,0.03,0.45,0.15,0.45,0.42c0,0.27-0.39,0.57-1.02,1.05v4.44h3.78l1.5-2.1c0.18-0.24,0.33-0.39,0.48-0.39
		c0.18,0,0.36,0.18,0.54,0.33l2.43,2.1c0.18,0.18,0.3,0.27,0.3,0.48c0,0.27-0.27,0.3-0.48,0.3h-8.25c1.29,2.52,4.77,8.64,9.6,10.44
		l-0.03,0.27c-1.5,0.63-2.13,1.56-2.94,2.82c-3.15-2.22-6.18-8.97-6.96-12.15c-0.03,3.78,0.03,6.93,0.15,10.95h0.3l1.05-1.5
		c0.15-0.21,0.3-0.39,0.48-0.39c0.21,0,0.45,0.21,0.54,0.3l1.62,1.53c0.18,0.15,0.3,0.27,0.3,0.45c0,0.27-0.24,0.33-0.45,0.33h-3.84
		c0.03,0.63,0.12,4.83,0.12,5.04c0,0.45-0.06,0.93-0.3,1.26c-0.27,0.36-1.08,0.84-2.1,0.84c-0.84,0-1.08-0.48-1.08-1.11
		c0-0.27,0.21-5.4,0.24-6.03h-1.41c-1.86,0-2.49,0.06-3.27,0.18l-0.48-1.08c1.29,0.09,2.97,0.18,4.29,0.18h0.87
		c0.03-0.72,0.03-1.68,0.03-2.1v-5.52c-1.68,2.61-5.13,6.9-8.25,8.43c0,0.63,0.03,4.77,0.03,5.07c0,0.57-0.03,0.93-0.3,1.2
		c-0.33,0.39-1.05,0.72-1.77,0.72c-1.26,0-1.26-0.75-1.26-1.32c0-1.26,0.36-9.66,0.36-11.49c0-0.51,0.03-2.55,0.03-3.84
		c-0.63,0.84-2.94,3.9-4.74,4.86l-0.15-0.18c3.45-4.29,6.51-13.56,6.78-15.84l3.93,1.74c0.15,0.06,0.3,0.21,0.3,0.42
		c0,0.33-0.39,0.51-1.29,0.81c-0.48,1.02-1.17,2.43-2.43,4.53l0.93,0.45c0.18,0.09,0.39,0.21,0.39,0.39c0,0.24-0.18,0.45-0.78,0.96
		c-0.06,2.76-0.09,4.86-0.09,6.21c0,0.93,0,1.35,0.06,5.04c3.63-4.53,5.67-9.06,6.9-12.87H123.12z"/>
	<path d="M167.26,20.64c-0.87,0-3.96-0.78-6.75-4.29c-2.16,1.83-4.26,2.7-5.52,3.15l-0.12-0.15c1.89-1.38,3.48-3.27,4.53-4.68
		c-1.47-2.67-2.19-5.76-2.67-8.31h-9.72c0,0.33,0,1.83-0.03,2.52c1.8,0.18,3.99,0.18,4.17,0.18h1.71l0.96-1.26
		c0.06-0.09,0.24-0.39,0.42-0.39c0.21,0,0.45,0.21,0.57,0.33L156.22,9c0.18,0.18,0.3,0.27,0.3,0.48c0,0.27-0.24,0.3-0.45,0.3h-5.46
		c-1.83,0-2.49,0.09-3.24,0.21l-0.39-0.87c-0.09,4.47-0.24,8.88-5.46,13.23l-0.18-0.21c2.31-3.66,2.67-8.94,2.67-12.39
		c0-1.86-0.12-3.75-0.39-5.64l3.63,1.53h9.36c-0.12-0.72-0.57-3.9-0.75-4.53l3.69,0.69c0.33,0.06,0.51,0.09,0.51,0.36
		c0,0.36-0.51,0.72-0.9,0.93c0.06,1.05,0.12,1.68,0.24,2.55h4.41l1.32-1.8c0.09-0.12,0.24-0.36,0.45-0.36c0.21,0,0.42,0.18,0.54,0.3
		l1.83,1.77c0.21,0.21,0.3,0.3,0.3,0.48c0,0.27-0.24,0.33-0.45,0.33h-8.28c0.39,2.55,1.05,4.5,1.62,5.7
		c1.53-2.61,1.71-3.75,1.92-4.86l3.21,1.83c0.27,0.15,0.48,0.27,0.48,0.51c0,0.33-0.42,0.54-1.11,0.75c-0.99,1.5-1.86,2.7-3.09,4.05
		c1.35,1.74,2.67,2.31,3.09,2.31c0.84,0,2.16-2.16,2.37-2.58l0.24,0.03c-0.06,0.69-0.09,2.4-0.09,2.85c0,0.42-0.03,0.93,0.18,1.32
		c0.33,0.63,0.39,0.72,0.39,1.08C168.73,20.1,168.22,20.64,167.26,20.64z M144.13,27.87c-0.9,0-1.62-0.69-1.62-1.59
		c0-0.75,0.3-0.99,1.23-1.8c1.08-0.93,1.71-1.86,2.16-3.18h0.27c0.21,0.57,0.51,1.41,0.51,2.76
		C146.68,24.75,146.56,27.87,144.13,27.87z M155.86,13.59c-0.03,0.57,0.03,3.48,0,3.63c-0.12,0.51-0.75,0.84-1.68,0.84
		c-0.72,0-0.96-0.24-0.93-1.08h-2.61c0.09,0.75,0.18,1.98-1.56,1.98c-1.17,0-1.17-0.66-1.17-1.11c0-0.54,0.09-2.94,0.09-3.42
		c0-1.47-0.03-1.98-0.21-3.39l2.85,0.96h2.52l0.69-0.84c0.15-0.18,0.27-0.36,0.51-0.36c0.18,0,0.39,0.18,0.48,0.24l1.47,1.14
		c0.21,0.15,0.36,0.3,0.36,0.51C156.67,12.96,156.28,13.32,155.86,13.59z M159.46,28.23c-1.5,0.12-2.97,0.12-6.48,0.12
		c-2.61,0-4.08-0.21-4.11-3.03c0-2.16-0.03-3.99-0.24-5.7l3.3,0.75c0.39,0.09,0.66,0.18,0.66,0.48c0,0.3-0.33,0.54-0.78,0.78
		c-0.03,0.51-0.09,3.3,0.15,3.66c0.21,0.3,2.07,0.3,2.73,0.3c4.08,0,4.26-0.09,4.71-0.78c0.51-0.75,1.02-2.04,1.29-3.18h0.21
		c0.42,2.88,0.57,2.97,1.44,3.45c0.27,0.15,0.36,0.39,0.36,0.72C162.7,27.45,160.78,28.14,159.46,28.23z M153.25,12.72h-2.64v3.54
		h2.64V12.72z M157,24.15c-0.99,0-1.29-0.72-1.65-1.68c-0.75-1.89-1.29-2.43-1.8-2.97l0.09-0.21c1.83,0.39,4.92,1.05,4.92,3.15
		C158.56,23.22,157.99,24.15,157,24.15z M163.21,5.07c-0.33,0-0.72-0.03-1.32-0.99c-0.69-1.08-0.99-1.56-1.8-2.34l0.03-0.24
		c2.25-0.15,4.5,0.39,4.5,2.07C164.62,4.29,164.08,5.07,163.21,5.07z M166.72,27.03c-1.08,0-1.35-0.72-1.83-1.98
		c-0.57-1.5-1.32-2.73-2.37-3.87l0.06-0.24c3.36,0.66,5.79,2.22,5.79,4.35C168.37,26.43,167.53,27.03,166.72,27.03z"/>
	<path d="M190.96,29.82V0h7.53c-0.45,0.66-4.29,6.48-4.29,14.91s3.84,14.25,4.29,14.91H190.96z"/>
	<path d="M215.62,26.31l-5.4-10.62h-2.64v7.59c0,1.38,0.54,2.07,2.13,2.07h0.96v0.96h-9.69v-0.96h0.96c1.5,0,2.13-0.6,2.13-2.07
		V7.47c0-1.35-0.51-2.07-2.13-2.07h-0.96V4.41h11.82c4.65,0,7.29,2.04,7.29,5.28c0,1.83-0.93,3.21-1.98,4.08
		c-1.41,1.17-2.76,1.47-3.99,1.74l3.57,7.02c1.26,2.46,2.28,2.82,3.48,2.82h0.42v0.96H215.62z M211.81,5.4h-2.1
		c-1.65,0-2.13,0.63-2.13,2.07v7.26h4.23c3.12,0,4.41-2.28,4.41-5.07C216.22,6.84,214.69,5.4,211.81,5.4z"/>
	<path d="M223.53,25.35h1.08c0.96,0,1.5-0.69,1.5-1.62v-8.88c0-0.66-0.18-1.5-1.11-1.5c-0.09,0-0.51,0-1.05,0.18l-0.18-0.75
		l5.43-1.23v12.18c0,1.05,0.45,1.62,1.62,1.62h0.96v0.96h-8.25V25.35z M229.77,6c0,1.17-0.93,2.13-2.13,2.13
		c-1.17,0-2.13-0.96-2.13-2.13c0-1.2,0.99-2.13,2.13-2.13C228.81,3.87,229.77,4.8,229.77,6z"/>
	<path d="M244.67,26.31l-7.05-18.03v15c0,1.35,0.54,2.07,2.13,2.07h0.75v0.96h-6.72v-0.96h0.75c1.53,0,2.13-0.66,2.13-2.07V7.47
		c0-2.07-1.92-2.07-2.88-2.07V4.41h6.21l6.45,16.5l5.7-16.5h7.41V5.4h-1.05c-1.74,0-2.13,0.75-2.13,2.07v15.81
		c0,1.41,0.6,2.07,2.13,2.07h1.05v0.96h-9.84v-0.96h1.02c1.59,0,2.16-0.69,2.16-2.07V5.22l-7.26,21.09H244.67z"/>
	<path d="M273.15,26.31L266.1,8.28v15c0,1.35,0.54,2.07,2.13,2.07h0.75v0.96h-6.72v-0.96h0.75c1.53,0,2.13-0.66,2.13-2.07V7.47
		c0-2.07-1.92-2.07-2.88-2.07V4.41h6.21l6.45,16.5l5.7-16.5h7.41V5.4h-1.05c-1.74,0-2.13,0.75-2.13,2.07v15.81
		c0,1.41,0.6,2.07,2.13,2.07h1.05v0.96h-9.84v-0.96h1.02c1.59,0,2.16-0.69,2.16-2.07V5.22l-7.26,21.09H273.15z"/>
	<path d="M310.53,7.23c-0.18,0.63-0.39,1.35-0.39,3.18c0,0.78,0.09,4.2,0.09,4.92c0,0.6,0,2.61-1.29,2.61
		c-0.9,0-1.92-1.32-1.92-2.85c0-0.3,0.18-1.5,0.21-1.74c0.06-0.66,0.15-1.95,0.15-3.42c0-3.48,0-3.81-2.76-4.53
		c0.48-0.3,1.23-0.81,2.19-0.81c1.17,0,3.87,0.87,3.87,1.92C310.68,6.66,310.62,6.87,310.53,7.23z M321.06,6.99
		c-0.06,0.57-0.21,6.09-0.27,7.23c-0.21,5.01-1.59,7.8-4.05,10.2c-1.59,1.59-3.54,2.73-5.73,3.18l-0.15-0.18
		c7.05-4.65,7.05-12.21,7.05-17.82c0-4.62-0.09-5.07-2.94-5.61c0.54-0.42,1.29-0.99,2.55-0.99c1.5,0,4.05,0.96,4.05,1.89
		C321.57,5.25,321.09,6.69,321.06,6.99z"/>
	<path d="M347.67,24.54c-1.08,0-1.44-0.93-1.83-2.19c-0.15-0.48-0.75-2.58-0.9-3.03c-3.03,1.32-7.74,2.58-12.09,3.69
		c-0.87,0.24-1.14,0.33-1.59,0.72c-0.33,0.3-0.48,0.39-0.72,0.39c-1.02,0-2.76-2.73-2.76-4.35c0-0.36,0.06-0.66,0.18-1.08
		c0.84,0.99,1.32,1.38,2.7,1.38c0.36,0,0.63,0,1.23-0.06c2.28-4.89,5.25-12.72,5.25-14.1c0-1.08-0.69-1.56-2.13-2.22
		c0.54-0.15,1.29-0.36,1.98-0.36c2.19,0,4.2,2.19,4.2,3.3c0,0.45-0.06,0.51-0.75,1.23c-0.39,0.39-0.57,0.75-0.99,1.56
		c-1.11,2.22-4.32,7.68-6.72,10.56c2.67-0.15,3.24-0.24,11.94-1.35c-1.26-3.03-3-4.92-3.81-5.82c3.69,1.44,8.52,5.7,8.52,9.45
		C349.38,23.61,348.63,24.54,347.67,24.54z"/>
	<path d="M363.09,0v29.82h-7.53c0.45-0.66,4.29-6.48,4.29-14.91S356.01,0.66,355.56,0H363.09z"/>
</g>
<g>
	<path d="M391.46,27.02l1.46-2.06c0.1-0.14,0.24-0.29,0.38-0.29c0.14,0,0.29,0.12,0.43,0.24l2.28,2.11
		c0.12,0.12,0.24,0.22,0.24,0.36c0,0.22-0.19,0.26-0.36,0.26h-17.23c-1.46,0-1.99,0.05-2.59,0.14l-0.38-0.91
		c1.13,0.1,2.26,0.14,3.41,0.14H391.46z M390.9,11.51l1.3-1.87c0.1-0.12,0.22-0.29,0.36-0.29c0.14,0,0.31,0.14,0.43,0.24l2.21,1.92
		c0.14,0.12,0.24,0.22,0.24,0.36c0,0.24-0.22,0.26-0.36,0.26h-15.46c-1.46,0-1.99,0.05-2.59,0.17l-0.41-0.94
		c1.15,0.12,2.16,0.14,3.43,0.14H390.9z M389.18,18.74l1.44-1.82c0.12-0.14,0.22-0.29,0.38-0.29c0.14,0,0.31,0.12,0.43,0.24
		l2.11,1.85c0.1,0.1,0.22,0.26,0.22,0.38c0,0.22-0.19,0.24-0.36,0.24h-12.62c-1.46,0-1.99,0.07-2.59,0.17l-0.38-0.91
		c1.13,0.1,2.26,0.14,3.41,0.14H389.18z"/>
	<path d="M404.05,15.52c-1.03,1.32-1.15,1.46-1.42,1.8l0.62,0.26c0.12,0.05,0.24,0.19,0.24,0.34c0,0.26-0.24,0.38-0.7,0.7
		c-0.02,1.34-0.02,2.35-0.02,4.06c0,0.74,0.1,4.06,0.1,4.73c0,1.66,0,1.82-0.34,2.23c-0.24,0.29-0.86,0.46-1.2,0.46
		c-0.98,0-0.98-0.55-0.98-0.84c0-0.14,0.19-5.26,0.19-5.47c0-0.67-0.02-3.53-0.02-4.1c-1.25,1.1-2.35,1.8-3.12,2.26l-0.14-0.12
		c0.7-0.89,4.54-5.81,5.14-8.88l2.23,1.78c0.17,0.14,0.29,0.26,0.29,0.43C404.91,15.42,404.7,15.45,404.05,15.52z M404.07,10.5
		c-2.06,2.06-3.48,3.41-6.48,4.68l-0.07-0.12c1.1-1.08,3.94-4.27,4.78-7.03l2.62,1.82c0.1,0.07,0.19,0.17,0.19,0.29
		C405.1,10.46,404.31,10.5,404.07,10.5z M404.67,28.53c-0.77,0-1.15-0.5-1.15-1.08c0-0.43,0.1-0.58,0.98-1.75
		c0.19-0.24,0.84-1.2,0.98-2.3h0.17c0.19,0.41,0.74,1.68,0.74,2.64C406.4,26.42,406.4,28.53,404.67,28.53z M418.95,12.04h-6.79
		c0,0.24,0.02,1.18,0.02,2.5h3.1L416,13.7c0.12-0.14,0.26-0.24,0.41-0.24c0.12,0,0.26,0.1,0.41,0.19l1.51,1.08
		c0.14,0.1,0.26,0.22,0.26,0.38c0,0.22-0.41,0.5-0.89,0.82c0,1.01,0,1.9,0.02,2.59c0.02,0.26,0.05,1.32,0.05,1.54
		c0,1.03-1.13,1.2-1.51,1.2c-0.86,0-0.86-0.31-0.84-1.08h-8.21c0.02,0.48-0.05,0.72-0.1,0.79c-0.07,0.1-0.53,0.6-1.32,0.6
		c-0.26,0-0.84-0.02-0.84-0.74c0-0.36,0.1-1.99,0.1-2.33c0-1.18-0.02-3.91-0.19-4.94l2.69,0.98h2.33c-0.02-0.62-0.02-1.9-0.02-2.5
		h-2.67c-1.49,0-1.99,0.05-2.59,0.17l-0.41-0.89c1.46,0.12,3.17,0.14,3.43,0.14h2.21c-0.02-1.87-0.1-2.18-0.41-3.48l3.26,0.82
		c0.1,0.02,0.24,0.12,0.24,0.26c0,0.24-0.43,0.53-0.7,0.72c-0.02,0.41-0.05,0.74-0.05,1.68h3.17l0.98-1.58
		c0.07-0.1,0.19-0.31,0.36-0.31c0.1,0,0.19,0.05,0.46,0.26l1.92,1.58c0.12,0.1,0.24,0.22,0.24,0.36
		C419.31,12.02,419.12,12.04,418.95,12.04z M415.35,29.06c-0.65,0.53-1.22,0.62-4.49,0.62c-3.48,0-3.65-0.6-3.65-2.79
		c0-0.41,0-3.7-0.02-3.94c-0.02-0.29-0.1-0.84-0.14-1.06l2.88,0.79c0.26,0.07,0.34,0.19,0.34,0.31c0,0.24-0.48,0.55-0.79,0.74
		c0.02,0.65,0.02,2.4,0,2.95c0,0.53,0.14,0.72,0.72,0.72c2.42,0,2.69,0,3.07-0.34c0.65-0.58,0.86-1.87,0.94-2.38h0.17
		c0.12,0.55,0.5,2.14,0.86,2.33c0.72,0.41,0.82,0.46,0.82,0.82C416.05,28.07,415.86,28.65,415.35,29.06z M408.54,15.11h-1.34v4.49
		h1.34V15.11z M412.59,25.05c-0.84,0-1.06-0.58-1.51-1.8c-0.55-1.42-0.91-1.73-1.25-1.99l0.07-0.19c2.9,0.58,3.91,1.44,3.91,2.64
		C413.82,24.54,413.17,25.05,412.59,25.05z M411.92,15.11h-1.44v4.49h1.44V15.11z M415.42,15.11h-1.56v4.49h1.56V15.11z
		 M418.11,27.57c-0.86,0-0.96-0.36-1.46-1.9c-0.36-1.08-0.91-2.21-1.66-2.95l0.12-0.19c2.21,0.79,4.27,1.51,4.27,3.58
		C419.38,27.11,418.76,27.57,418.11,27.57z"/>
	<path d="M438.35,15.47c-0.46,0.36-0.58,0.46-0.98,2.26c-0.19,0.82-0.86,4.46-1.01,5.21c0.58,0.19,1.13,0.84,1.13,1.42
		c0,0.67-0.53,0.77-0.86,0.77c-0.65,0-3.48-0.1-4.06-0.1c-2.4,0-4.34,0.24-6.05,0.74c-0.24,0.07-1.25,0.36-1.39,0.36
		c-0.91,0-2.35-1.97-2.35-3c0-0.55,0.14-0.89,0.24-1.18c0.74,0.98,1.78,1.68,3.07,1.68c1.01,0,6.34-0.34,8.23-0.6
		c0.74-4.85,0.98-6.5,0.98-7.75c0-0.31-0.14-0.46-0.5-0.46c-2.26,0-5.11,0.38-8.18,1.1c-0.19,0.05-0.98,0.31-1.18,0.31
		c-0.98,0-2.42-1.75-2.42-3.14c0-0.41,0.05-0.65,0.1-0.89c0.94,1.2,2.14,1.63,3.14,1.63c2.54,0,8.45-0.5,9.03-0.74
		c0.19-0.07,1.06-0.67,1.25-0.67c0.38,0,2.38,1.73,2.38,2.33C438.91,15.06,438.71,15.18,438.35,15.47z"/>
	<path d="M459.99,20.2c-0.41,0-1.01-0.05-1.1-0.05c-1.39-0.1-4.58-0.1-6.31-0.1c-0.26,0-5.04,0.1-6.72,0.55
		c-0.65,0.17-0.72,0.19-0.86,0.19c-0.82,0-2.28-1.85-2.28-3.07c0-0.55,0.36-1.3,0.5-1.58c0.79,1.87,1.22,1.97,3.91,1.97
		c1.49,0,9.89-0.1,10.46-0.29c0.17-0.07,0.79-0.24,0.96-0.24c0.96,0,2.98,0.41,2.98,1.66C461.53,19.84,460.9,20.2,459.99,20.2z"/>
	<path d="M465.63,25.6c-0.6,0-1.42-0.36-1.42-1.27c0-1.03,1.01-1.66,1.32-1.85c2.06-1.27,2.98-2.86,3.43-3.74
		C469.13,21.38,467.86,25.6,465.63,25.6z M481.73,16.94c-0.1,0-1.8-0.22-1.97-0.24c-0.82-0.1-2.16-0.14-2.98-0.14
		c-0.82,0-1.58,0.05-2.38,0.1c-0.02,1.54,0.07,6.24,0.1,6.74c0,0.31,0.1,2.14,0.1,2.26c0,0.55-0.22,3.29-1.56,3.29
		c-0.6,0-0.74-0.31-1.22-1.39c-0.48-1.08-0.96-1.7-2.5-2.64v-0.19c0.55,0.12,1.22,0.26,2.3,0.26c0.36,0,0.62,0,0.74-0.36
		c0.19-0.58,0.19-3.91,0.19-4.78c0-0.94,0-1.3-0.02-3.02c-1.3,0.14-3.89,0.53-4.92,1.06c-0.17,0.1-0.43,0.22-0.72,0.22
		c-1.2,0-2.45-1.9-2.45-2.86c0-0.26,0.1-0.5,0.31-1.15c0.31,0.48,1.01,1.61,2.57,1.61c0.24,0,4.32-0.31,5.16-0.36
		c-0.07-3.12-0.07-3.19-0.31-3.94c-0.22-0.7-1.06-1.01-1.92-1.3c0.48-0.41,1.06-0.74,1.75-0.74c1.18,0,3.19,1.08,3.19,1.82
		c0,0.22-0.05,0.31-0.41,1.1c-0.19,0.46-0.29,2.26-0.34,2.88c1.99-0.17,3.94-0.36,4.39-0.46c0.14-0.02,1.06-0.29,1.15-0.29
		c0.48,0,2.52,0.55,2.52,1.7C482.52,16.94,481.95,16.94,481.73,16.94z M481.32,25.22c-0.86,0-1.22-0.77-1.94-2.28
		c-0.74-1.56-1.68-2.98-3.14-4.18c2.21,0.31,6.29,2.47,6.29,4.92C482.52,24.47,481.97,25.22,481.32,25.22z M481.47,13.65
		c-1.27,0-2.3-1.03-2.3-2.3c0-1.27,1.03-2.3,2.3-2.3s2.3,1.03,2.3,2.3C483.77,12.62,482.74,13.65,481.47,13.65z M481.47,10.07
		c-0.7,0-1.25,0.58-1.25,1.27s0.55,1.25,1.25,1.25s1.27-0.55,1.27-1.25S482.16,10.07,481.47,10.07z"/>
	<path d="M493.55,26.85c-0.5,0.31-0.55,0.36-0.98,0.82c-0.22,0.22-0.36,0.24-0.43,0.24c-0.72,0-2.21-2.52-2.21-2.86
		c0-0.19,0.34-0.96,0.38-1.1c0.17-0.48,0.17-2.83,0.17-4.27c0-0.6-0.05-6.62-0.22-7.13c-0.17-0.48-0.65-0.7-2.04-1.13
		c0.7-0.41,1.32-0.77,2.02-0.77c0.94,0,3.31,0.84,3.31,1.61c0,0.24-0.43,1.3-0.48,1.51c-0.24,1.15-0.55,6.87-0.55,8.81
		c0,0.67,0.02,1.13,0.05,1.61c6.24-2.45,11.33-7.42,12.17-8.35l0.17,0.14C502.12,21.59,498.81,23.63,493.55,26.85z"/>
	<path d="M525.67,20.2c-0.41,0-1.01-0.05-1.1-0.05c-1.39-0.1-4.58-0.1-6.31-0.1c-0.26,0-5.04,0.1-6.72,0.55
		c-0.65,0.17-0.72,0.19-0.86,0.19c-0.82,0-2.28-1.85-2.28-3.07c0-0.55,0.36-1.3,0.5-1.58c0.79,1.87,1.22,1.97,3.91,1.97
		c1.49,0,9.89-0.1,10.47-0.29c0.17-0.07,0.79-0.24,0.96-0.24c0.96,0,2.98,0.41,2.98,1.66C527.21,19.84,526.58,20.2,525.67,20.2z"/>
	<path d="M536.27,19.41c-0.38,0-0.58-0.14-1.32-0.72c-2.38-1.87-3.26-2.23-4.51-2.59c0.84-0.17,1.75-0.34,2.93-0.34
		c3.07,0,4.08,1.37,4.08,2.35C537.44,18.74,537.11,19.41,536.27,19.41z M538.17,13.84c-0.46,0-0.77-0.26-1.08-0.55
		c-2.3-2.06-3.1-2.64-4.42-3.02c0.6-0.1,1.2-0.22,2.06-0.22c2.54,0,4.54,1.06,4.54,2.47C539.27,13,539,13.84,538.17,13.84z
		 M537.95,26.42c-1.18,0.82-1.3,0.91-1.87,1.58c-0.05,0.07-0.24,0.26-0.55,0.26c-0.29,0-2.78-1.2-2.78-3.79
		c0-0.29,0.05-0.46,0.12-0.74c0.55,0.77,1.49,1.42,1.87,1.42c1.75,0,10.01-6.55,13.27-10.97l0.17,0.07
		C546.9,18.14,542.94,22.86,537.95,26.42z"/>
	<path d="M556.48,22.31c-0.19,0.05-1.03,0.41-1.2,0.41c-0.36,0-1.66-1.15-1.66-2.35c0-0.38,0.1-0.6,0.19-0.82
		c0.38,0.77,0.94,1.2,1.73,1.2c0.7,0,3.82-0.29,4.44-0.34c0.79-0.05,1.27-0.05,2.23-0.1c0.07-1.39,0.07-1.54,0.1-3.07
		c-1.13,0.1-5.54,0.5-6.26,0.72c-0.12,0.05-0.91,0.29-1.01,0.29c-0.62,0-1.49-1.32-1.49-2.11c0-0.41,0.12-0.79,0.22-1.08
		c0.67,1.25,1.39,1.25,1.99,1.25c0.94,0,5.74-0.1,6.43-0.53c0.14-0.1,0.79-0.67,0.96-0.67c0.19,0,2.04,1.56,2.04,1.85
		c0,0.19-0.84,0.74-0.89,0.94c-0.14,0.77-0.36,7.18-0.58,8.5c-0.14,0.94-0.58,1.39-1.06,1.39c-0.74,0-0.96-0.72-1.15-1.3
		c-1.49,0.07-4.08,0.46-4.99,0.65c-0.24,0.05-1.22,0.46-1.44,0.46c-0.65,0-1.63-1.54-1.63-2.45c0-0.38,0.1-0.62,0.22-0.86
		c0.41,0.74,0.96,1.3,1.87,1.3c0.36,0,5.86-0.41,6.34-0.46c0.14-1.66,0.17-1.82,0.26-3.36C561,21.76,558.09,21.98,556.48,22.31z"/>
	<path d="M576.2,15.4c-0.48,0-0.72-0.26-1.73-1.37c-1.15-1.3-2.35-2.28-3.87-2.86c0.5-0.1,1.03-0.19,1.8-0.19
		c1.34,0,5.06,0.43,5.06,2.98C577.47,14.9,576.75,15.4,576.2,15.4z M579.87,22.89c-0.7,0.58-4.32,3.41-4.46,3.55
		c-0.67,0.7-0.74,0.77-1.08,0.77c-1.03,0-3-2.3-3-3.84c0-0.46,0.14-0.84,0.24-1.13c1.01,1.68,1.85,1.7,1.94,1.7
		c0.67,0,4.06-2.23,6.02-3.7c2.93-2.18,5.67-4.87,7.58-7.27l0.14,0.07C586.61,15.23,584.24,19.34,579.87,22.89z"/>
	<path d="M612.41,30.79c-4.56-3.55-5.86-8.02-5.86-11.62c0-3.6,1.3-8.06,5.86-11.62l0.22,0.34c-1.03,1.1-4.32,4.68-4.32,11.28
		s3.31,10.18,4.32,11.28L612.41,30.79z"/>
	<path d="M635.48,27.57c-3.48-2.78-4.49-7.27-4.66-8.02c0.02,2.52,0.14,6.58,0.14,9.1c0,0.53,0,1.61-1.56,1.61
		c-1.06,0-1.06-0.67-1.06-1.03c0-0.05,0.02-0.74,0.05-1.13c0.12-3.05,0.14-4.08,0.17-6.67c-1.2,1.75-3.74,4.85-6.86,6.36l-0.1-0.14
		c0.84-0.77,3.43-3.12,5.52-8.86h-0.98c-1.54,0-2.04,0.07-2.47,0.14c0.05,0.12,0.07,0.26,0.07,0.5c0,1.15-0.98,1.37-1.27,1.37
		c-0.79,0-0.86-0.53-1.03-1.82c-0.05-0.29-0.17-1.18-0.58-1.75c0,1.82,0.05,9.87,0.05,11.5c0,0.43,0,1.46-1.54,1.46
		c-0.96,0-0.96-0.43-0.96-0.98c0-2.59,0.24-6.72,0.24-9.31c-0.43,0.82-1.78,3.19-3.77,4.82l-0.14-0.12
		c2.59-4.3,3.55-9.26,3.67-10.42c-1.27,0-1.92,0.02-2.71,0.17l-0.41-0.89c1.37,0.12,2.86,0.14,3.38,0.14c0-3.12-0.17-4.37-0.34-5.42
		l3.02,0.7c0.22,0.05,0.38,0.1,0.38,0.29c0,0.22-0.19,0.36-0.82,0.79c0,0.38-0.02,1.3-0.02,1.97c0,0.24-0.02,1.44-0.02,1.68h0.31
		l0.72-1.3c0.05-0.1,0.19-0.31,0.36-0.31c0.19,0,0.29,0.12,0.46,0.29l1.13,1.25c0.17,0.17,0.22,0.24,0.22,0.38
		c0,0.22-0.17,0.26-0.36,0.26h-2.83c-0.05,1.66-0.05,1.85-0.02,2.42c0.67,0.19,1.61,0.58,2.35,1.46c1.42,0.12,3.02,0.14,3.36,0.14
		h1.99v-4.08h-2.76c-0.91,1.56-2.18,2.98-2.66,3.5l-0.17-0.12c1.42-3.29,1.75-6.55,1.75-7.1c0-0.41-0.05-0.72-0.07-0.98l2.95,1.15
		c0.19,0.07,0.29,0.22,0.29,0.36c0,0.29-0.26,0.41-0.84,0.6c-0.41,0.96-0.62,1.42-0.94,2.02h2.45c-0.07-3.94-0.07-4.2-0.53-5.38
		l3.24,0.67c0.17,0.02,0.46,0.12,0.46,0.34c0,0.19-0.14,0.41-0.84,0.86c-0.02,0.55-0.05,3-0.07,3.5h1.63l0.98-1.46
		c0.1-0.14,0.24-0.29,0.38-0.29c0.14,0,0.26,0.12,0.43,0.24l1.82,1.46c0.17,0.12,0.24,0.24,0.24,0.36c0,0.24-0.22,0.26-0.38,0.26
		h-5.11c0,1.37-0.02,3.43,0,4.08h2.4l1.1-1.58c0.1-0.12,0.22-0.29,0.36-0.29c0.14,0,0.34,0.12,0.46,0.24l1.8,1.58
		c0.12,0.1,0.24,0.22,0.24,0.36c0,0.24-0.22,0.26-0.36,0.26h-5.76c1.8,3.65,4.78,5.57,6.67,6.19v0.17
		C636.56,25.6,635.89,26.51,635.48,27.57z"/>
	<path d="M639.63,30.79l-0.22-0.34c1.01-1.1,4.32-4.68,4.32-11.28s-3.29-10.18-4.32-11.28l0.22-0.34c4.56,3.55,5.86,8.02,5.86,11.62
		C645.49,22.77,644.19,27.23,639.63,30.79z"/>
	<path d="M672.37,21.98c-0.72,0-1.03-0.62-1.49-1.49c-0.24-0.48-0.89-1.51-1.58-2.3c-0.02,4.25-0.02,5.3-0.02,5.62
		c0,0.74,0.12,4.13,0.12,4.82c0,1.08-1.3,1.27-1.7,1.27c-0.94,0-0.96-0.65-0.96-1.06c0-0.67,0.07-1.78,0.1-2.45
		c0.02-0.98,0.02-1.51,0.05-6.24c-2.06,1.75-3.67,2.59-4.37,2.98l-0.12-0.17c1.85-1.63,5.42-5.52,7.03-9.43h-3.29
		c-1.46,0-1.99,0.05-2.59,0.17l-0.38-0.89c1.42,0.12,3.02,0.14,3.31,0.14h0.48c0-2.93-0.31-3.98-0.58-4.83l3.41,0.79
		c0.17,0.05,0.43,0.1,0.43,0.34c0,0.26-0.43,0.5-0.84,0.74c-0.02,0.46-0.05,0.94,0,2.95h0.26l0.7-0.77
		c0.14-0.17,0.22-0.26,0.36-0.26c0.17,0,0.34,0.14,0.43,0.22l1.68,1.42c0.07,0.05,0.19,0.17,0.19,0.31c0,0.41-0.55,0.55-1.18,0.7
		c-0.5,0.74-1.22,1.73-2.45,3.14c0.7,0.12,4.2,0.86,4.2,3C673.57,21.4,672.97,21.98,672.37,21.98z M684.56,28.67h-10.46
		c-1.46,0-1.99,0.05-2.59,0.17l-0.38-0.89c1.46,0.14,3.14,0.14,3.41,0.14h2.28c0-3.72,0-7.46-0.02-11.18h-1.44
		c-1.46,0-1.99,0.05-2.59,0.14l-0.41-0.86c1.46,0.12,3.17,0.14,3.43,0.14h1.01c-0.05-6.43-0.05-6.65-0.72-8.23l3.48,0.67
		c0.19,0.05,0.62,0.14,0.62,0.46c0,0.29-0.53,0.6-0.86,0.79c-0.02,0.58-0.02,5.18-0.02,6.31h1.49l1.13-1.63
		c0.1-0.14,0.22-0.31,0.36-0.31c0.1,0,0.34,0.19,0.43,0.26l1.75,1.63c0.12,0.1,0.22,0.22,0.22,0.36c0,0.22-0.19,0.26-0.36,0.26
		h-5.02c0,1.78,0.02,9.6,0.02,11.18h1.51l1.39-1.75c0.17-0.22,0.26-0.31,0.38-0.31c0.14,0,0.36,0.17,0.46,0.26l1.66,1.75
		c0.14,0.14,0.22,0.24,0.22,0.36C684.92,28.65,684.7,28.67,684.56,28.67z"/>
	<path d="M706.41,29.9c-3-0.91-4.54-2.33-5.54-3.55c-1.92,1.08-5.57,2.52-8.21,3.19c-0.07,0.46-0.34,0.65-0.5,0.65
		c-0.14,0-0.22-0.14-0.36-0.38l-1.37-2.5c0.41,0.02,0.72,0.05,1.13,0.05c0.77,0,1.51-0.07,2.26-0.17v-2.04
		c-1.49,0.72-3.55,1.73-6.91,2.28v-0.17c3.36-1.32,6.36-3.43,7.9-5.14h-4.49c-1.49,0-1.99,0.05-2.59,0.17l-0.41-0.89
		c1.46,0.12,3.17,0.14,3.43,0.14h6.84c0.02-0.6,0-1.08-0.02-1.54c-0.48,0.24-0.84,0.36-1.3,0.46c-0.26-1.42-0.67-1.9-1.37-2.5
		c0,0.36,0.02,2.04-0.02,2.23c-0.19,0.74-1.3,0.77-1.44,0.77c-0.53,0-0.74-0.22-0.74-0.84c0-0.77,0.05-3.31,0.07-4.2h-1.56
		c0,0.58,0.05,3.26,0,3.67c-0.07,0.84-1.22,0.94-1.49,0.94c-0.24,0-0.74,0-0.74-0.7c0-0.67,0.05-1.75,0.05-2.42
		c0-0.98,0-2.02-0.12-2.98l2.38,0.91h1.49c0.02-0.67,0.02-1.51,0.02-1.78h-2.52c-1.46,0-1.99,0.07-2.59,0.17l-0.38-0.89
		c0.38,0.05,0.65,0.05,1.42,0.1c0.46-1.37,0.84-3.48,0.79-4.71l2.3,0.82c0.07,0.02,0.29,0.12,0.29,0.29c0,0.26-0.36,0.36-0.53,0.41
		c-0.12,0.29-0.22,0.48-0.43,0.86h1.61c-0.07-1.13-0.07-1.37-0.31-2.5l2.76,0.58c0.14,0.02,0.38,0.1,0.38,0.31
		c0,0.31-0.22,0.41-0.72,0.65v0.96h1.13l0.74-1.1c0.12-0.17,0.24-0.29,0.36-0.29c0.14,0,0.26,0.1,0.46,0.24l1.3,1.1
		c0.12,0.1,0.24,0.19,0.24,0.36c0,0.22-0.19,0.26-0.36,0.26h-3.86V13h1.94l0.77-1.06c0.1-0.14,0.22-0.29,0.36-0.29
		c0.17,0,0.26,0.1,0.46,0.24l1.32,1.06c0.12,0.1,0.24,0.22,0.24,0.38c0,0.22-0.22,0.24-0.36,0.24h-4.73c0,0.29,0.02,1.51,0.02,1.78
		h1.7l0.6-0.74c0.12-0.14,0.24-0.26,0.41-0.26c0.12,0,0.29,0.1,0.38,0.17l1.22,0.89c0.22,0.17,0.26,0.36,0.26,0.43
		c0,0.29-0.34,0.5-0.67,0.74c0,0.41,0.02,1.66,0,1.97c-0.02,0.31-0.12,0.48-0.19,0.6l1.61,0.41c0.41,0.1,0.58,0.22,0.58,0.43
		c0,0.29-0.26,0.41-0.82,0.67v0.89h5.42l0.96-1.2c0.14-0.17,0.22-0.31,0.36-0.31c0.14,0,0.24,0.1,0.46,0.26l1.54,1.2
		c0.14,0.12,0.24,0.22,0.24,0.36c0,0.22-0.22,0.26-0.36,0.26h-4.56l2.04,1.22c0.19,0.12,0.36,0.22,0.36,0.43
		c0,0.36-0.34,0.34-0.94,0.29c-1.08,0.43-2.71,0.89-3.36,1.03c2.62,1.7,4.92,2.09,6.96,2.09l0.02,0.14
		C708.48,27.59,707.21,28.1,706.41,29.9z M692.76,11.2h-2.02c-0.48,0.6-0.96,1.18-1.68,1.78c0.5,0.02,1.54,0.02,1.63,0.02h2.09
		C692.78,12.47,692.78,11.78,692.76,11.2z M694.87,15.93c0,0.62,0,1.22,0.02,1.85c0.1,0.02,0.94,0.12,1.32,0.12
		c0.5,0,0.53,0,0.5-1.97H694.87z M698.56,22.12h-0.24c-0.62,0.7-1.49,1.27-2.18,1.7v3.05c1.58-0.24,2.66-0.43,4.46-0.86
		C700.22,25.5,699.38,24.38,698.56,22.12z M699.12,22.12c0.26,0.41,0.89,1.42,2.38,2.54c0.29-0.26,1.44-1.51,1.92-2.54H699.12z
		 M702.98,10.7c-0.02,0.82,0.05,4.42,0.05,5.16c0,1.13-1.03,1.25-1.63,1.25c-0.62,0-0.65-0.43-0.65-0.65c0-0.58,0.07-3.05,0.07-3.55
		c0-1.61-0.02-2.38-0.29-3.67l2.64,0.58c0.24,0.05,0.38,0.12,0.38,0.31C703.56,10.34,703.41,10.43,702.98,10.7z M707.21,10.14
		c0,0.58-0.05,4.61,0.02,6.53c0.07,1.82,0.12,3.1-2.98,3.74c-0.17-0.82-0.43-1.94-1.85-2.86v-0.17c0.36,0.05,1.39,0.12,1.78,0.12
		s0.55-0.02,0.6-0.48c0.05-0.38,0.05-3.24,0.05-3.79c0-3.02-0.05-3.48-0.34-4.8l3.07,0.7c0.26,0.07,0.38,0.17,0.38,0.34
		C707.95,9.76,707.45,10.05,707.21,10.14z"/>
</g>
</svg>
