<?xml version="1.0" encoding="utf-8"?>
<!-- Generator: Adobe Illustrator 25.1.0, SVG Export Plug-In . SVG Version: 6.00 Build 0)  -->
<svg version="1.1" id="レイヤー_1" xmlns="http://www.w3.org/2000/svg" xmlns:xlink="http://www.w3.org/1999/xlink" x="0px"
	 y="0px" viewBox="0 0 624 28.38" style="enable-background:new 0 0 624 28.38;" xml:space="preserve">
<g>
	<path d="M27,9.48H7.44c-0.12,8.04-0.21,13.8-7.32,18.9L0,28.17c3.84-4.83,4.2-9.96,4.2-15.48c0-1.32-0.03-2.85-0.06-3.42
		c-1.92,1.29-3.27,1.89-3.96,2.22l-0.15-0.21C2.91,9,5.07,6.27,6.96,2.94c0.84-1.53,0.9-1.98,0.96-2.88l4.11,1.44
		c0.12,0.03,0.42,0.15,0.42,0.45c0,0.3-0.57,0.54-1.29,0.75c-0.45,0.57-0.63,0.78-0.96,1.17h4.44l1.08-1.02
		c0.15-0.15,0.42-0.45,0.66-0.45c0.21,0,0.48,0.21,0.57,0.3l2.37,1.83c0.21,0.15,0.36,0.33,0.36,0.54c0,0.48-0.48,0.57-1.32,0.78
		c-0.36,0.09-0.81,0.3-1.35,0.72c-0.45,0.36-2.49,1.89-2.91,2.19h8.28l1.41-1.83c0.09-0.12,0.24-0.39,0.48-0.39
		c0.18,0,0.42,0.21,0.57,0.33l2.31,1.83c0.12,0.09,0.3,0.27,0.3,0.45C27.45,9.45,27.21,9.48,27,9.48z M9.54,4.59
		C8.19,6.06,7.08,7.05,5.79,8.07L7.5,8.76h5.31c1.11-1.83,1.47-2.94,1.83-4.17H9.54z M25.92,26.67c-1.11,0.63-3,0.84-7.38,0.84
		c-7.74,0-8.61-0.33-8.61-3.9c0-2.22,0.03-5.79,0-8.01c0-1.98-0.09-2.88-0.36-4.2l3.87,1.5h5.34l0.87-1.14
		c0.12-0.15,0.27-0.42,0.54-0.42c0.18,0,0.39,0.15,0.51,0.24l2.1,1.53c0.12,0.09,0.36,0.27,0.36,0.48c0,0.42-0.54,0.66-1.23,1.02
		c0,4.95-0.09,5.31-0.54,5.97c-0.81,1.17-2.28,1.47-3.75,1.56c-0.03-1.74-0.96-2.82-2.43-3.48l0.06-0.24
		c0.57,0.06,1.23,0.15,2.13,0.15c1.44,0,1.59,0,1.59-0.9c0-0.63,0.03-3.09,0.03-4.05h-5.94c-0.03,2.31-0.06,6.99-0.06,9.24
		c0,0.75,0,1.41,0.81,1.56c0.48,0.09,3.36,0.09,3.96,0.09c3.24,0,5.25-0.03,6.03-0.81c0.24-0.27,0.54-0.54,1.41-4.11h0.24
		c0.48,3.18,0.93,3.66,1.38,4.05c0.27,0.24,0.54,0.48,0.54,0.78C27.39,25.41,26.7,26.22,25.92,26.67z"/>
	<path d="M39.6,4.41c-1.14,1.98-2.52,3.87-3.9,5.73c1.53,1.29,2.19,1.92,2.73,2.85c0.87,1.5,1.23,3,1.23,4.17
		c0,1.2-0.51,2.82-1.68,3.75c-0.84,0.69-1.74,0.84-2.28,0.96c-0.06-0.66-0.21-2.43-1.65-3.63c0,0.93,0.03,5.37,0.03,6.39
		c0,1.71,0,1.89-0.33,2.28c-0.36,0.39-1.05,0.6-1.56,0.6c-1.17,0-1.17-0.75-1.17-1.23c0-0.06,0.03-0.15,0.03-0.21
		c0.3-9.6,0.3-9.84,0.3-16.71c0-5.82-0.09-6.96-0.39-8.76l3.57,1.62h2.07l0.87-1.08c0.12-0.12,0.33-0.33,0.48-0.33
		c0.18,0,0.39,0.09,0.57,0.27l2.16,1.86c0.12,0.09,0.33,0.33,0.33,0.54C41.01,3.99,40.08,4.26,39.6,4.41z M34.83,10.35
		c1.17-3.6,1.47-5.31,1.8-7.41h-2.55c0,2.34-0.03,12.78-0.03,14.91c0.42,0.12,0.84,0.21,1.29,0.21c0.87,0,1.56-0.45,1.56-2.28
		C36.9,15.36,36.9,12.87,34.83,10.35z M54.81,27.6c-2.58-1.23-4.65-2.91-6.6-8.31c-1.2,4.89-5.28,7.47-11.58,8.34l-0.03-0.24
		c5.43-1.44,8.01-5.34,8.79-8.85h-2.1c0.21,1.89-1.74,1.89-1.92,1.89c-0.96,0-0.96-0.72-0.96-1.05c0-0.54,0.06-2.91,0.06-3.42
		c0-2.82-0.06-3.42-0.24-4.62l3.15,1.26h2.43c0.03-0.45,0-2.46,0-2.85c-1.8,0-2.52,0.03-3.45,0.21l-0.51-1.11
		c1.83,0.15,3.96,0.18,4.29,0.18h2.34l0.96-1.56c0.09-0.15,0.27-0.36,0.45-0.36c0.21,0,0.42,0.15,0.57,0.33l1.44,1.5
		c0.15,0.15,0.3,0.3,0.3,0.48c0,0.3-0.27,0.33-0.48,0.33h-3c0,0.45-0.03,2.46-0.03,2.85h2.76l0.57-0.81c0.21-0.3,0.3-0.45,0.48-0.45
		s0.33,0.09,0.54,0.24l1.86,1.17c0.27,0.15,0.45,0.3,0.45,0.51c0,0.36-0.36,0.6-1.05,1.05c0,0.33,0.03,3.99,0.03,4.29
		c0,1.11-0.96,1.44-1.92,1.44c-0.87,0-0.9-0.57-0.9-1.5h-3.12c2.31,3.39,5.94,5.52,9.18,5.76v0.24
		C56.52,25.02,55.35,26.28,54.81,27.6z M55.02,10.86c-3.51-1.98-5.52-4.29-7.23-8.22c-1.56,2.46-5.34,6.51-9.72,8.4l-0.06-0.24
		c2.52-1.98,6.42-7.2,6.72-10.8l3.99,1.47c0.12,0.03,0.42,0.18,0.42,0.45c0,0.36-0.48,0.51-0.75,0.57c1.41,1.59,4.29,4.11,9.18,4.95
		v0.24C55.92,8.37,55.47,9.63,55.02,10.86z M43.26,13.32v4.5h2.25c0.18-1.38,0.27-2.79,0.3-4.5H43.26z M51.54,13.32h-2.85
		c-0.06,0.84-0.18,3.87-0.24,4.5h3.09V13.32z"/>
	<path d="M82.06,13.56c-2.85,0.45-4.95,0.78-8.4,2.22c0.09,0.51,0.24,1.38,0.24,2.79c0,0.78,0,3.21-1.62,3.21
		c-0.87,0-1.56-0.93-1.56-2.13c0-0.36,0.09-1.92,0.09-2.22v-0.3c-1.62,0.93-4.23,2.67-4.23,4.38c0,1.98,2.88,2.1,4.47,2.1
		c1.53,0,3.06-0.21,4.59-0.48c0.39-0.06,1.32-0.18,1.5-0.18c1.08,0,2.16,1.14,2.16,1.89c0,0.69-0.48,1.08-0.9,1.23
		c-0.81,0.27-3.57,0.57-5.34,0.57c-1.89,0-8.19-0.15-8.19-3.99c0-3.03,3.54-5.64,5.82-7.08c-0.21-1.38-0.48-2.88-2.16-2.88
		c-1.8,0-3.18,1.5-4.05,2.97c-0.36,0.6-1.29,2.19-1.65,2.49c-0.18,0.15-0.42,0.24-0.66,0.24c-0.96,0-1.17-1.05-1.17-1.92
		c0-1.11,0.18-1.44,1.68-2.94c1.53-1.53,2.73-3.3,3.87-5.1c-0.54,0.06-0.87,0.09-1.38,0.09c-3.18,0-4.05-2.01-3.99-3.27
		c1.02,0.9,2.13,1.26,4.02,1.26c0.36,0,1.26-0.03,2.61-0.21c0.45-0.81,1.47-2.64,1.47-3.3c0-0.51-0.84-1.02-2.28-1.08
		c0.45-0.51,1.17-1.23,2.79-1.23c1.65,0,3.15,1.05,3.15,1.77c0,0.51-0.15,0.69-0.87,1.47c-0.24,0.24-0.36,0.39-1.26,1.68
		c0.54-0.18,2.82-1.14,3.3-1.32c0.27-0.09,0.48-0.15,0.69-0.15c0.81,0,1.98,0.87,1.98,1.44c0,0.57-0.48,0.87-0.93,1.05
		c-1.86,0.69-3.72,1.08-6.78,1.5c-0.45,0.69-2.52,3.6-2.85,4.23c0.69-0.3,1.68-0.75,3.24-0.75c2.61,0,3.33,1.41,3.75,2.52
		c0.81-0.42,5.04-2.61,5.22-2.7c0.72-0.39,0.78-0.63,0.78-0.87c0-0.39-0.12-0.45-1.29-1.02c0.24-0.15,0.6-0.33,1.32-0.33
		c1.92,0,3.96,1.68,3.96,3.24C83.2,13.32,82.69,13.47,82.06,13.56z"/>
	<path d="M99.13,18.75h-5.01c-0.15,0.72-0.21,1.11-0.51,1.89c1.35,0.12,4.44,1.02,4.44,2.85c0,0.48-0.45,1.74-1.59,1.74
		c-0.87,0-1.05-0.39-1.65-1.77c-0.12-0.27-0.69-1.5-1.41-2.28c-0.78,1.74-2.85,5.1-7.41,6.69l-0.15-0.21
		c3.27-2.46,4.92-6.18,5.4-8.91h-1.71c-1.83,0-2.49,0.09-3.24,0.21l-0.48-1.11c0.39,0.03,0.78,0.06,1.02,0.09l-0.12-0.06
		c0.57-1.38,2.01-5.52,1.77-7.65l3.45,1.17c0.15,0.06,0.39,0.15,0.39,0.45c0,0.33-0.39,0.48-1.05,0.72
		c-0.24,0.42-0.36,0.6-0.75,1.17h3.96l0.96-1.59c0.03-0.06,0.21-0.36,0.45-0.36c0.18,0,0.42,0.21,0.54,0.3l1.83,1.59
		c0.15,0.15,0.3,0.24,0.3,0.45c0,0.27-0.24,0.33-0.45,0.33h-3.6c-0.06,1.89-0.21,3.03-0.3,3.57h1.44l0.84-1.59
		c0.06-0.09,0.21-0.36,0.39-0.36c0.21,0,0.45,0.18,0.57,0.3l1.83,1.59c0.27,0.24,0.3,0.36,0.3,0.48
		C99.58,18.72,99.31,18.75,99.13,18.75z M90.01,14.46c-1.65,2.16-2.46,2.94-3.09,3.48c0.93,0.06,2.19,0.09,3.15,0.09h1.29
		c0.09-0.75,0.21-1.89,0.24-3.57H90.01z M95.74,10.35h-4.62c-3.03,0-3.06-1.89-3.06-2.64c0-5.67,0-6.3-0.27-7.29l3.27,0.81
		c0.15,0.03,0.63,0.15,0.63,0.42c0,0.33-0.45,0.57-0.9,0.81c0,0.57-0.03,1.95-0.03,2.52c1.56-0.75,4.05-2.52,4.8-4.08l2.73,2.07
		c0.21,0.18,0.39,0.45,0.39,0.66s-0.09,0.39-0.72,0.39c-0.15,0-0.84-0.03-0.99-0.03c-1.05,0.45-2.85,1.14-6.21,1.68
		c0,1.77,0,2.13,1.47,2.13h2.34c0.99,0,2.01-0.27,2.67-3.12h0.21c0.18,0.9,0.45,2.16,1.08,2.49c0.69,0.36,0.87,0.45,0.87,0.81
		C99.4,8.34,98.77,10.35,95.74,10.35z M111.9,27.48c-1.11,0.03-7.74,0.15-10.47-5.7c-0.57,1.41-1.59,3.87-5.34,6.03l-0.15-0.21
		c2.55-2.73,3.75-6.96,3.75-10.8c0-1.53-0.15-2.43-0.3-3.27l3.42,0.96c0.21,0.06,0.63,0.15,0.63,0.45c0,0.27-0.21,0.45-0.78,0.93
		c-0.18,2.49-0.57,3.96-0.93,5.1c0.57,0.48,1.62,1.11,2.19,1.44V10.83h-1.29c-1.86,0-2.49,0.06-3.27,0.18l-0.48-1.08
		c1.83,0.15,3.96,0.18,4.29,0.18h5.85l1.08-1.17c0.03-0.03,0.3-0.33,0.48-0.33c0.18,0,0.36,0.21,0.45,0.3l2.25,2.28
		c0.15,0.15,0.24,0.33,0.24,0.51c0,0.72-0.66,0.72-1.83,0.72c-0.33,0.15-2.13,1.08-3.57,1.59l-0.15-0.15
		c0.6-1.23,0.87-1.92,1.14-3.03h-2.46v6.18h1.74l1.11-2.07c0.09-0.18,0.27-0.39,0.45-0.39c0.21,0,0.51,0.3,0.54,0.33l2.19,2.1
		c0.15,0.15,0.27,0.27,0.27,0.45c0,0.27-0.27,0.3-0.45,0.3h-5.85v5.76c1.65,0.39,3.36,0.42,4.26,0.42c1.59,0,2.37-0.12,2.85-0.18
		l0.06,0.21C112.23,24.96,111.99,26.73,111.9,27.48z M109.62,4.2c-0.99,0.63-2.76,1.53-3.48,1.8c1.23,0.81,1.23,1.86,1.23,2.01
		c0,0.96-0.75,1.71-1.62,1.71c-0.81,0-0.93-0.21-2.07-2.01c-0.72-1.14-1.65-2.43-2.64-3.09l0.12-0.18c1.53,0.12,3.03,0.51,4.41,1.23
		c0.21-0.39,0.9-1.65,1.29-3h-4.08c-0.3,0-1.95,0-3.24,0.27l-0.51-1.08c1.62,0.09,1.89,0.09,4.29,0.09h3.6l1.02-1.02
		c0.27-0.27,0.36-0.3,0.45-0.3c0.15,0,0.24,0.09,0.54,0.3l2.31,1.74c0.18,0.15,0.33,0.39,0.33,0.63
		C111.57,3.96,110.85,4.05,109.62,4.2z"/>
	<path d="M123.65,3.3c-0.57,1.2-1.32,2.79-1.98,4.11l1.02,0.42c0.27,0.12,0.6,0.27,0.6,0.48c0,0.3-0.45,0.63-0.9,0.93v9.78
		c0,0.36,0.09,6.57,0.09,6.81c0,0.6,0,1.77-2.13,1.77c-0.93,0-1.08-0.39-1.08-1.35c0-0.24,0.21-9.66,0.21-9.96v-5.16
		c-1.86,2.64-3.42,3.87-4.2,4.47l-0.18-0.15c5.01-8.34,5.4-14.82,5.4-15.09l3.69,1.74c0.27,0.12,0.48,0.27,0.48,0.48
		C124.67,2.97,123.95,3.18,123.65,3.3z M129.65,20.22c-1.29,0.93-3.54,2.58-3.84,2.82c-0.15,0.6-0.3,0.87-0.57,0.87
		c-0.15,0-0.36-0.12-0.54-0.42l-1.95-3.24c1.29-0.06,1.8-0.18,3-0.57c0-9.69,0-9.72-0.06-11.88c-0.12-4.47-0.3-5.1-0.63-6.12
		l3.84,0.93c0.45,0.12,0.69,0.27,0.69,0.57c0,0.36-0.48,0.66-0.93,0.93v14.55c3.96-1.5,4.38-1.68,4.74-1.83l0.15,0.24
		C132.38,18.09,131,19.23,129.65,20.22z M141.44,26.61c-1.02,0-1.44-0.84-1.8-1.77c-0.78-2.04-1.17-3.06-2.37-4.65
		c-0.69,1.17-1.62,2.25-2.79,3.06c-3.36,2.31-6.9,3.09-9.06,3.51v-0.27c10.86-4.53,11.07-11.22,11.07-19.29
		c0-4.08-0.18-4.89-0.48-5.94l3.75,0.84c0.45,0.09,0.84,0.27,0.84,0.57c0,0.33-0.39,0.6-0.81,0.81c-0.06,1.32-0.27,7.74-0.42,9.18
		c-0.33,3.15-0.78,5.19-1.8,7.02c0.6,0.3,2.76,1.35,2.85,1.41c0.93,0.48,2.67,1.86,2.67,3.57
		C143.09,25.47,142.58,26.61,141.44,26.61z M133.46,11.46c-1.23,0-1.53-1.2-1.71-1.92c-0.39-1.56-1.05-3.45-2.07-4.56l0.21-0.18
		c2.1,0.9,5.25,2.28,5.25,4.83C135.14,10.77,134.24,11.46,133.46,11.46z"/>
	<path d="M155.8,7.89c-1.86,0-2.49,0.09-3.27,0.21l-0.48-1.11c1.29,0.12,2.97,0.18,4.29,0.18h3.03c-0.09-4.65-0.24-5.37-0.75-6.87
		l4.32,0.96c0.15,0.03,0.45,0.15,0.45,0.42s-0.39,0.57-1.02,1.05v4.44h3.78l1.5-2.1c0.18-0.24,0.33-0.39,0.48-0.39
		c0.18,0,0.36,0.18,0.54,0.33l2.43,2.1c0.18,0.18,0.3,0.27,0.3,0.48c0,0.27-0.27,0.3-0.48,0.3h-8.25c1.29,2.52,4.77,8.64,9.6,10.44
		l-0.03,0.27c-1.5,0.63-2.13,1.56-2.94,2.82c-3.15-2.22-6.18-8.97-6.96-12.15c-0.03,3.78,0.03,6.93,0.15,10.95h0.3l1.05-1.5
		c0.15-0.21,0.3-0.39,0.48-0.39c0.21,0,0.45,0.21,0.54,0.3l1.62,1.53c0.18,0.15,0.3,0.27,0.3,0.45c0,0.27-0.24,0.33-0.45,0.33h-3.84
		c0.03,0.63,0.12,4.83,0.12,5.04c0,0.45-0.06,0.93-0.3,1.26c-0.27,0.36-1.08,0.84-2.1,0.84c-0.84,0-1.08-0.48-1.08-1.11
		c0-0.27,0.21-5.4,0.24-6.03h-1.41c-1.86,0-2.49,0.06-3.27,0.18l-0.48-1.08c1.29,0.09,2.97,0.18,4.29,0.18h0.87
		c0.03-0.72,0.03-1.68,0.03-2.1V12.6c-1.68,2.61-5.13,6.9-8.25,8.43c0,0.63,0.03,4.77,0.03,5.07c0,0.57-0.03,0.93-0.3,1.2
		c-0.33,0.39-1.05,0.72-1.77,0.72c-1.26,0-1.26-0.75-1.26-1.32c0-1.26,0.36-9.66,0.36-11.49c0-0.51,0.03-2.55,0.03-3.84
		c-0.63,0.84-2.94,3.9-4.74,4.86l-0.15-0.18c3.45-4.29,6.51-13.56,6.78-15.84l3.93,1.74c0.15,0.06,0.3,0.21,0.3,0.42
		c0,0.33-0.39,0.51-1.29,0.81c-0.48,1.02-1.17,2.43-2.43,4.53l0.93,0.45c0.18,0.09,0.39,0.21,0.39,0.39c0,0.24-0.18,0.45-0.78,0.96
		c-0.06,2.76-0.09,4.86-0.09,6.21c0,0.93,0,1.35,0.06,5.04c3.63-4.53,5.67-9.06,6.9-12.87H155.8z"/>
	<path d="M174.71,25.11c-0.75,0-1.2-0.69-1.2-1.17c0-0.45,0.09-0.6,0.84-2.01c0.69-1.29,0.9-2.22,1.08-3.03h0.18
		c0.24,0.54,0.87,1.89,0.87,3.63C176.48,23.04,176.48,25.11,174.71,25.11z M199.91,10.56c-0.63-0.33-1.47-0.81-2.43-1.71
		c0.03,0.18,0.03,0.42-0.45,0.42h-2.28c-0.03,0.72-0.03,2.28-0.03,3.06h2.07l0.78-0.99c0.18-0.24,0.27-0.36,0.48-0.36
		c0.12,0,0.36,0.18,0.51,0.3l1.59,1.17c0.24,0.18,0.36,0.3,0.36,0.54c0,0.27-0.06,0.36-0.75,0.93c0,0.6,0.06,3.3,0.06,3.87
		c0,1.41-1.35,1.56-1.71,1.56c-1.08,0-1.08-0.57-1.05-1.23h-2.37c2.22,4.8,6.06,5.97,7.23,6.33v0.24c-1.32,0.69-2.34,2.31-2.64,3.15
		c-3.9-2.73-4.83-8.19-5.01-9.33c-0.42,1.83-1.68,7.44-9.75,9.15l-0.12-0.21c2.22-1.32,6.54-4.41,7.35-9.33h-1.71
		c0,0.57,0,1.53-1.65,1.53c-0.9,0-1.05-0.54-1.05-1.02c0-0.15,0.12-3.15,0.12-3.72c0-2.61-0.06-3.18-0.12-3.81l2.91,1.23h1.83
		c0-0.36-0.03-2.52-0.03-3.06c-1.35,0-1.92,0.09-2.43,0.15l-0.39-0.84c-1.02,0.84-2.22,1.74-3.36,2.34
		c0.33,0.27,0.39,0.33,0.39,0.54c0,0.24-0.18,0.3-0.45,0.3h-3.63v3.96h1.38l0.81-1.11c0.09-0.15,0.3-0.39,0.45-0.39
		s0.27,0.09,0.54,0.3l1.5,1.2c0.39,0.3,0.45,0.42,0.45,0.57c0,0.33-0.3,0.57-0.72,0.87c-0.18,1.02-0.87,5.43-1.08,6.3
		c-0.99,4.2-3.6,4.23-4.77,4.2c-0.09-0.36-0.45-1.68-0.57-1.86c-0.42-0.69-1.26-1.29-1.74-1.62l0.12-0.21
		c1.44,0.21,2.58,0.36,2.97,0.36c0.75,0,1.23-0.12,1.83-3.03c-0.54-0.09-0.69-0.36-0.93-1.08c-0.45-1.32-0.48-1.47-1.2-2.46
		l0.15-0.24c0.51,0.12,1.5,0.36,2.34,1.11c0-0.33,0.12-1.89,0.15-2.19h-6.12c0,0.9-0.03,1.71-1.59,1.71c-1.08,0-1.08-0.6-1.08-0.93
		c0-0.24,0.09-1.23,0.09-1.41c0.15-2.79,0.12-9.51,0.12-9.84c0-2.82-0.12-3.78-0.21-4.68l2.91,1.38h4.92l0.96-1.56
		c0.09-0.12,0.27-0.39,0.48-0.39c0.15,0,0.36,0.18,0.54,0.33l1.86,1.56c0.15,0.15,0.3,0.27,0.3,0.45c0,0.3-0.27,0.33-0.45,0.33
		h-4.41V6.9h0.48l0.84-1.35c0.06-0.12,0.3-0.36,0.45-0.36c0.18,0,0.45,0.21,0.57,0.3l1.47,1.35c0.18,0.18,0.3,0.3,0.3,0.48
		c0,0.24-0.21,0.3-0.48,0.3h-3.63v3.42h0.51l0.75-1.32c0.09-0.15,0.27-0.36,0.48-0.36c0.18,0,0.45,0.24,0.54,0.3l1.08,0.96
		c3.87-4.5,5.79-8.58,5.73-10.26l3.51,1.26c0.18,0.06,0.45,0.18,0.45,0.48c0,0.33-0.3,0.54-0.78,0.6c1.59,1.89,4.32,3.9,7.56,4.68
		v0.24C201.08,8.19,200.39,9.24,199.91,10.56z M178.19,23.58c-1.08,0-1.11-1.2-1.11-2.16c-0.03-1.23-0.27-2.13-0.42-2.76l0.15-0.09
		c1.23,0.81,2.64,2.01,2.64,3.51C179.45,23.16,178.7,23.58,178.19,23.58z M179.72,3.39h-1.98V6.9h1.98V3.39z M179.72,7.62h-1.98
		v3.42h1.98V7.62z M179.72,11.76h-1.98v3.96h1.98V11.76z M181.01,22.83c-0.9,0-0.96-0.45-1.14-1.92c-0.06-0.39-0.39-1.8-0.84-2.52
		l0.18-0.21c0.9,0.42,3.03,1.89,3.03,3.27C182.24,22.14,181.76,22.83,181.01,22.83z M193.94,3.12c-1.17,2.04-2.79,3.78-4.56,5.31
		c0.93,0.06,2.01,0.12,3.15,0.12h2.22l0.69-1.02c0.24-0.36,0.33-0.42,0.57-0.36C195.14,5.94,194.48,4.53,193.94,3.12z M190.04,13.05
		v4.35h1.8c0.06-0.63,0.18-2.07,0.24-4.35H190.04z M197.06,13.05h-2.34c-0.03,1.95-0.03,2.79-0.27,4.35h2.61V13.05z"/>
	<path d="M214.15,26.67c-6.06,0-6.45-3.57-6.45-8.4c0-1.98,0.33-10.71,0.33-12.51c0-1.35-0.18-1.8-0.42-2.07s-1.14-0.87-2.52-0.96
		c1.14-1.02,2.49-1.2,3-1.2c1.71,0,3.96,1.44,3.96,2.73c0,0.39-0.51,2.04-0.6,2.4c-0.78,3.21-1.23,10.62-1.23,12.81
		c0,2.52,0,4.35,3.39,4.35c3.87,0,10.56-2.79,13.47-6l0.18,0.18C224.83,23.85,219.34,26.67,214.15,26.67z"/>
	<path d="M237.04,27.03c-1.29,0-1.62-0.9-2.31-2.64c-1.17-3.03-2.88-4.35-3.69-4.95l0.15-0.33c2.16,0.45,4.14,0.9,5.91,2.34
		c1.47,1.2,1.98,2.43,1.98,3.48C239.08,25.95,238.27,27.03,237.04,27.03z"/>
	<path d="M287.11,9.48h-19.56c-0.12,8.04-0.21,13.8-7.32,18.9l-0.12-0.21c3.84-4.83,4.2-9.96,4.2-15.48c0-1.32-0.03-2.85-0.06-3.42
		c-1.92,1.29-3.27,1.89-3.96,2.22l-0.15-0.21c2.88-2.28,5.04-5.01,6.93-8.34c0.84-1.53,0.9-1.98,0.96-2.88l4.11,1.44
		c0.12,0.03,0.42,0.15,0.42,0.45c0,0.3-0.57,0.54-1.29,0.75c-0.45,0.57-0.63,0.78-0.96,1.17h4.44l1.08-1.02
		c0.15-0.15,0.42-0.45,0.66-0.45c0.21,0,0.48,0.21,0.57,0.3l2.37,1.83c0.21,0.15,0.36,0.33,0.36,0.54c0,0.48-0.48,0.57-1.32,0.78
		c-0.36,0.09-0.81,0.3-1.35,0.72c-0.45,0.36-2.49,1.89-2.91,2.19h8.28l1.41-1.83c0.09-0.12,0.24-0.39,0.48-0.39
		c0.18,0,0.42,0.21,0.57,0.33l2.31,1.83c0.12,0.09,0.3,0.27,0.3,0.45C287.56,9.45,287.32,9.48,287.11,9.48z M269.65,4.59
		c-1.35,1.47-2.46,2.46-3.75,3.48l1.71,0.69h5.31c1.11-1.83,1.47-2.94,1.83-4.17H269.65z M286.03,26.67c-1.11,0.63-3,0.84-7.38,0.84
		c-7.74,0-8.61-0.33-8.61-3.9c0-2.22,0.03-5.79,0-8.01c0-1.98-0.09-2.88-0.36-4.2l3.87,1.5h5.34l0.87-1.14
		c0.12-0.15,0.27-0.42,0.54-0.42c0.18,0,0.39,0.15,0.51,0.24l2.1,1.53c0.12,0.09,0.36,0.27,0.36,0.48c0,0.42-0.54,0.66-1.23,1.02
		c0,4.95-0.09,5.31-0.54,5.97c-0.81,1.17-2.28,1.47-3.75,1.56c-0.03-1.74-0.96-2.82-2.43-3.48l0.06-0.24
		c0.57,0.06,1.23,0.15,2.13,0.15c1.44,0,1.59,0,1.59-0.9c0-0.63,0.03-3.09,0.03-4.05h-5.94c-0.03,2.31-0.06,6.99-0.06,9.24
		c0,0.75,0,1.41,0.81,1.56c0.48,0.09,3.36,0.09,3.96,0.09c3.24,0,5.25-0.03,6.03-0.81c0.24-0.27,0.54-0.54,1.41-4.11h0.24
		c0.48,3.18,0.93,3.66,1.38,4.05c0.27,0.24,0.54,0.48,0.54,0.78C287.5,25.41,286.81,26.22,286.03,26.67z"/>
	<path d="M299.71,4.41c-1.14,1.98-2.52,3.87-3.9,5.73c1.53,1.29,2.19,1.92,2.73,2.85c0.87,1.5,1.23,3,1.23,4.17
		c0,1.2-0.51,2.82-1.68,3.75c-0.84,0.69-1.74,0.84-2.28,0.96c-0.06-0.66-0.21-2.43-1.65-3.63c0,0.93,0.03,5.37,0.03,6.39
		c0,1.71,0,1.89-0.33,2.28c-0.36,0.39-1.05,0.6-1.56,0.6c-1.17,0-1.17-0.75-1.17-1.23c0-0.06,0.03-0.15,0.03-0.21
		c0.3-9.6,0.3-9.84,0.3-16.71c0-5.82-0.09-6.96-0.39-8.76l3.57,1.62h2.07l0.87-1.08c0.12-0.12,0.33-0.33,0.48-0.33
		c0.18,0,0.39,0.09,0.57,0.27l2.16,1.86c0.12,0.09,0.33,0.33,0.33,0.54C301.12,3.99,300.19,4.26,299.71,4.41z M294.94,10.35
		c1.17-3.6,1.47-5.31,1.8-7.41h-2.55c0,2.34-0.03,12.78-0.03,14.91c0.42,0.12,0.84,0.21,1.29,0.21c0.87,0,1.56-0.45,1.56-2.28
		C297.01,15.36,297.01,12.87,294.94,10.35z M314.92,27.6c-2.58-1.23-4.65-2.91-6.6-8.31c-1.2,4.89-5.28,7.47-11.58,8.34l-0.03-0.24
		c5.43-1.44,8.01-5.34,8.79-8.85h-2.1c0.21,1.89-1.74,1.89-1.92,1.89c-0.96,0-0.96-0.72-0.96-1.05c0-0.54,0.06-2.91,0.06-3.42
		c0-2.82-0.06-3.42-0.24-4.62l3.15,1.26h2.43c0.03-0.45,0-2.46,0-2.85c-1.8,0-2.52,0.03-3.45,0.21l-0.51-1.11
		c1.83,0.15,3.96,0.18,4.29,0.18h2.34l0.96-1.56c0.09-0.15,0.27-0.36,0.45-0.36c0.21,0,0.42,0.15,0.57,0.33l1.44,1.5
		c0.15,0.15,0.3,0.3,0.3,0.48c0,0.3-0.27,0.33-0.48,0.33h-3c0,0.45-0.03,2.46-0.03,2.85h2.76l0.57-0.81c0.21-0.3,0.3-0.45,0.48-0.45
		c0.18,0,0.33,0.09,0.54,0.24l1.86,1.17c0.27,0.15,0.45,0.3,0.45,0.51c0,0.36-0.36,0.6-1.05,1.05c0,0.33,0.03,3.99,0.03,4.29
		c0,1.11-0.96,1.44-1.92,1.44c-0.87,0-0.9-0.57-0.9-1.5h-3.12c2.31,3.39,5.94,5.52,9.18,5.76v0.24
		C316.63,25.02,315.46,26.28,314.92,27.6z M315.13,10.86c-3.51-1.98-5.52-4.29-7.23-8.22c-1.56,2.46-5.34,6.51-9.72,8.4l-0.06-0.24
		c2.52-1.98,6.42-7.2,6.72-10.8l3.99,1.47c0.12,0.03,0.42,0.18,0.42,0.45c0,0.36-0.48,0.51-0.75,0.57c1.41,1.59,4.29,4.11,9.18,4.95
		v0.24C316.03,8.37,315.58,9.63,315.13,10.86z M303.37,13.32v4.5h2.25c0.18-1.38,0.27-2.79,0.3-4.5H303.37z M311.65,13.32h-2.85
		c-0.06,0.84-0.18,3.87-0.24,4.5h3.09V13.32z"/>
	<path d="M331.15,25.2l-0.06-0.21c4.41-1.71,9.45-5.25,9.45-11.73c0-4.35-2.73-8.04-8.55-8.04c-0.84,0-1.08,0.06-1.44,0.18
		c2.67,1.41,2.67,2.7,2.67,3.09c0,1.08-2.61,6.63-4.56,9.81c-2.31,3.78-3.45,4.77-4.5,4.77c-0.96,0-1.23-0.45-2.16-1.89
		c-0.39-0.6-0.42-0.63-1.17-1.26c-0.93-0.78-1.35-2.22-1.35-3.63c0-6.63,5.7-12.09,13.2-12.09c5.79,0,11.43,3.39,11.43,9.81
		C344.11,23.37,333.55,24.87,331.15,25.2z M329.53,5.58c-3.45,1.02-7.47,5.34-7.47,10.32c0,1.23,0.57,4.17,1.83,4.17
		c1.23,0,2.7-3.06,3.93-5.67c0.72-1.47,2.46-5.1,2.46-6.87C330.28,6.51,329.77,5.85,329.53,5.58z"/>
	<path d="M365.67,15.24h-5.16c-1.83,0-2.49,0.09-3.24,0.21l-0.42-0.93c-3.54,3.66-6.96,5.01-9.57,5.61l-0.09-0.21
		c0.9-0.51,2.49-1.41,5.19-3.9c-0.75-0.18-0.9-0.9-1.02-1.5c-0.12-0.69-0.3-1.23-0.81-1.89c-1.08,0.72-1.92,1.14-2.52,1.44
		l-0.15-0.18c3.21-2.79,5.82-7.41,6-9.3L357,5.94c0.15,0.06,0.39,0.21,0.39,0.48c0,0.3-0.21,0.39-1.02,0.6
		c-0.18,0.24-0.18,0.27-0.51,0.72h2.04l0.9-0.69c0.27-0.21,0.42-0.3,0.54-0.3c0.15,0,0.36,0.12,0.57,0.3l1.56,1.44
		c0.09,0.06,0.27,0.27,0.27,0.45c0,0.36-0.39,0.54-1.29,0.93c-0.72,1.14-1.71,2.64-3.45,4.5c1.77,0.15,3.75,0.15,4.05,0.15h1.23
		l1.05-1.41c0.18-0.21,0.3-0.36,0.48-0.36c0.15,0,0.36,0.12,0.54,0.3l1.5,1.44c0.15,0.15,0.27,0.3,0.27,0.48
		C366.12,15.18,365.88,15.24,365.67,15.24z M357.09,22.68c-0.33,0.06-0.54,0.12-0.9,0.24c-2.16,1.77-4.5,3.36-8.22,4.47l-0.15-0.15
		c2.79-2.01,5.64-5.4,6.18-7.08l3.21,1.68c0.24,0.12,0.42,0.27,0.42,0.48C357.63,22.56,357.33,22.62,357.09,22.68z M371.97,17.7
		c-6.51-2.94-9.87-8.31-10.5-11.79l0.24-0.09c1.68,3.15,3.54,4.62,4.71,5.43c0.69-1.17,0.99-1.71,1.47-2.88h-1.11
		c-1.38,0-1.89,0.09-2.37,0.15l-0.48-0.99c1.47,0.12,3.03,0.12,3.39,0.12h0.57l0.66-0.69c0.06-0.06,0.15-0.12,0.21-0.18
		c0.21-0.54,0.57-1.71,0.72-2.4h-17.61c0.24,4.56-2.37,4.56-2.52,4.56c-0.54,0-1.47-0.36-1.47-1.53c0-0.81,0.21-0.99,1.38-1.89
		c1.53-1.23,1.89-2.61,2.07-3.3h0.24c0.06,0.33,0.15,0.78,0.24,1.44h7.53c-0.03-1.74-0.27-2.43-0.54-3.27l3.99,0.81
		c0.24,0.06,0.48,0.18,0.48,0.42c0,0.24-0.18,0.48-0.84,0.87c-0.03,0.27-0.03,0.36-0.03,1.17h6.84l1.08-0.93
		c0.3-0.24,0.42-0.36,0.6-0.36c0.15,0,0.33,0.09,0.6,0.39l2.22,2.25c0.18,0.18,0.33,0.36,0.33,0.66c0,0.42-0.45,0.48-0.87,0.48
		c-1.44,0-1.59,0-3.45,0.75c0.06,0.06,0.12,0.09,0.18,0.15l1.89,1.77c0.15,0.15,0.33,0.36,0.33,0.6c0,0.36-0.66,0.6-1.86,0.69
		c-1.26,0.72-1.53,0.84-3.09,1.62c1.56,0.93,3.84,2.01,7.74,2.73v0.24C373.8,15.06,372.75,16.08,371.97,17.7z M354.12,11.73
		c-0.33-0.87-0.48-1.02-0.69-1.29c-0.57,0.51-1.26,1.11-2.49,1.95c1.47,0.27,2.73,1.23,2.88,2.16c0.15-0.18,0.69-0.81,1.08-1.29
		C354.6,13.05,354.54,12.93,354.12,11.73z M369.9,19.35h-7.38c0,0.69,0.06,3.78,0.06,4.38c0,1.74,0,3.99-3.93,4.56
		c-0.27-1.38-0.75-2.7-3.18-3.75l0.09-0.24c0.54,0.06,1.53,0.15,2.79,0.15c0.96,0,1.23,0,1.26-0.63c0.03-0.48,0-3.66,0-4.47h-3.96
		c-1.83,0-2.49,0.09-3.24,0.21l-0.48-1.11c1.8,0.18,3.93,0.18,4.26,0.18h9.66l1.14-1.56c0.18-0.24,0.3-0.39,0.48-0.39
		s0.33,0.12,0.54,0.3l2.04,1.59c0.18,0.12,0.3,0.27,0.3,0.48C370.35,19.29,370.11,19.35,369.9,19.35z M355.32,8.46
		c-0.33,0.36-0.66,0.78-1.41,1.5c1.86,0.27,2.25,0.99,2.43,1.32c0.87-1.35,1.2-2.13,1.44-2.82H355.32z M370.47,26.91
		c-0.93,0-1.11-0.27-2.43-2.19c-1.77-2.61-3-3.3-3.93-3.78l0.06-0.21c2.7,0.21,8.1,1.47,8.1,4.35
		C372.27,26.16,371.43,26.91,370.47,26.91z"/>
	<path d="M392.08,14.7h-5.37c-0.06,0.99-0.18,2.49-0.72,4.47c1.05,0.3,5.7,1.62,5.7,4.65c0,1.14-0.96,1.65-1.56,1.65
		c-0.84,0-1.29-0.54-1.86-1.89c-0.33-0.75-1.02-2.4-2.49-3.78c-0.18,0.51-0.45,1.32-1.08,2.37c-2.31,3.87-6,5.28-7.23,5.73
		l-0.09-0.21c4.23-3.12,6.03-7.05,6.45-12.99h-2.49c-2.1,0-2.67,0.09-3.24,0.21l-0.51-1.11c1.44,0.12,2.85,0.18,4.29,0.18h2.01
		c0.06-1.35,0.18-3.54,0.09-6.6h-1.08c-1.14,1.86-2.22,3.66-4.47,5.49l-0.21-0.15c1.89-3.15,3.75-9.09,3.48-12.39l4.08,1.65
		c0.15,0.06,0.42,0.18,0.42,0.45c0,0.36-0.3,0.48-1.35,0.84c-0.33,0.81-0.72,1.86-1.56,3.39h4.11l1.23-1.77
		c0.18-0.27,0.3-0.39,0.45-0.39c0.15,0,0.36,0.15,0.57,0.33l2.04,1.77c0.15,0.12,0.3,0.3,0.3,0.45c0,0.27-0.27,0.33-0.45,0.33h-4.71
		c0.03,0.93,0.06,2.94-0.09,6.6h0.99l1.29-1.74c0.21-0.27,0.33-0.39,0.48-0.39c0.15,0,0.33,0.15,0.57,0.33l2.16,1.74
		c0.12,0.09,0.3,0.3,0.3,0.45C392.54,14.61,392.33,14.7,392.08,14.7z M403.27,7.47c0,1.02-0.09,8.4,0.03,13.23
		c0,0.6,0.18,3.21,0.18,3.75c0,1.77-1.62,1.83-2.16,1.83c-1.11,0-1.14-0.69-1.14-1.32c0-0.36,0.03-0.57,0.06-0.93h-4.17
		c0.03,0.54,0.06,0.81,0.06,1.14c0,1.68-1.83,1.74-2.07,1.74c-1.2,0-1.23-0.63-1.23-1.02c0-0.09,0.09-1.89,0.09-2.25
		c0.03-1.08,0.12-7.41,0.12-11.04c0-5.88-0.09-6.78-0.36-8.64l3.48,1.59h3.9l1.17-1.26c0.15-0.15,0.27-0.24,0.39-0.24
		s0.24,0.06,0.45,0.24l1.98,1.68c0.18,0.15,0.33,0.3,0.33,0.48C404.38,6.75,404.17,6.93,403.27,7.47z M400.25,6.27h-4.17v17.04h4.17
		V6.27z"/>
	<path d="M420.01,9.72c-0.54,0-1.05-0.27-1.41-1.32c-0.06-0.21-0.33-1.11-0.39-1.29c-1.2,0.39-5.58,1.68-8.43,2.31
		c-0.06,0.21-0.12,0.48-0.18,0.63l3,1.11h4.02l0.78-1.05c0.09-0.15,0.18-0.27,0.36-0.27c0.18,0,0.27,0.09,0.39,0.15l2.4,1.41
		c0.12,0.06,0.3,0.21,0.3,0.45c0,0.42-0.81,0.9-0.99,0.99c-0.06,3.15-0.06,4.71-0.06,5.19c0,0.78,0.06,4.17,0.06,4.89
		c0,2.31,0,3.45-1.59,4.29c-0.75,0.42-1.53,0.63-2.37,0.69c-0.21-1.74-1.02-2.94-2.34-3.69l0.06-0.24c0.48,0.09,2.19,0.27,2.43,0.27
		c0.42,0,0.63-0.09,0.72-0.39c0.06-0.21,0.09-3.03,0.12-3.51h-4.53c0,0.48,0.09,5.04,0.09,5.52c0,1.92-1.83,1.92-2.16,1.92
		c-0.78,0-1.02-0.33-1.02-0.96c0-2.7,0.27-6.99,0.27-9.69c0-2.28,0-5.01-0.18-6.87c-0.33,0.15-0.57-0.06-0.69-0.39l-1.29-3.69
		c1.35,0.33,3.15,0.36,3.93,0.36c0.24-0.63,1.47-4.32,1.38-6.42l3.9,1.65c0.21,0.09,0.39,0.24,0.39,0.48c0,0.45-0.6,0.51-1.41,0.57
		c-1.08,1.59-2.85,3.36-3.24,3.72c0.84,0,1.32,0,5.55-0.18c-0.15-0.33-0.66-1.47-1.68-2.43l0.03-0.21c3.69,0.81,5.46,2.7,5.46,4.29
		C421.69,9.12,420.82,9.72,420.01,9.72z M416.89,11.88h-4.53v3.45h4.53V11.88z M416.89,16.05h-4.53v3.57h4.53V16.05z M428.65,13.23
		c-5.85,0-6.24,0-6.27-3.99c-0.06-6.54-0.06-7.26-0.45-8.64l4.17,1.08c0.18,0.06,0.45,0.09,0.45,0.42s-0.12,0.39-1.2,0.9
		c-0.03,0.96-0.03,2.01-0.03,3.66c2.88-1.83,3.99-2.97,4.71-4.35l2.82,2.46c0.15,0.15,0.21,0.27,0.21,0.42
		c0,0.36-0.24,0.45-0.57,0.45c-0.18,0-0.39-0.03-0.54-0.06c-2.58,1.08-5.64,1.65-6.63,1.77c0,0.84,0,2.31,0.06,2.49
		c0.15,0.48,0.54,0.57,3.12,0.57c2.13,0,2.94,0,3.6-3.72h0.24c0.24,1.56,0.48,2.97,1.02,3.27c0.66,0.36,0.9,0.51,0.9,1.02
		C434.26,13.23,431.2,13.23,428.65,13.23z M428.14,27.42c-5.67,0-5.79-0.75-5.79-3.9c0-0.66,0.03-3.57,0.03-4.17
		c0-1.98,0-4.59-0.42-5.91l4.08,1.08c0.18,0.06,0.45,0.09,0.45,0.45c0,0.39-0.84,0.81-1.14,0.96c-0.03,0.6-0.03,3.27-0.03,3.81
		c1.47-0.9,3.51-2.52,4.77-4.83l3,2.58c0.12,0.09,0.18,0.27,0.18,0.42c0,0.54-0.6,0.48-1.47,0.39c-2.43,1.17-5.34,1.95-6.51,2.1
		c0,0.51,0,3.45,0.12,3.69c0.15,0.33,0.48,0.42,2.13,0.42c3.18,0,3.72,0,4.68-4.38h0.21c0.45,3.12,0.51,3.42,1.05,3.75
		c0.42,0.27,0.69,0.45,0.69,0.84C434.17,27.42,430.15,27.42,428.14,27.42z"/>
	<path d="M462.53,9.33c-0.3,0.27-0.78,0.66-1.08,0.9c-0.3,8.85-0.54,12.24-2.22,14.91c-1.5,2.34-3.72,2.55-6.27,2.76
		c-0.03-0.3-0.63-3.18-3.6-4.5l0.12-0.24c2.4,0.66,3.87,0.72,4.44,0.72c1.47,0,2.37-0.33,3-1.83c0.42-0.96,1.08-7.71,1.08-11.34
		c0-0.63,0-1.2-0.03-1.83h-7.65c-0.3,2.91-0.84,6.69-2.61,9.96c-1.26,2.37-4.8,7.26-11.31,8.97l-0.12-0.27
		c3.12-1.5,5.97-4.92,7.32-7.05c1.62-2.55,2.85-5.61,3.33-11.61h-5.61c-2.07,0-2.64,0.09-3.24,0.21l-0.66-1.11
		c0.66,0.03,3.75,0.18,4.44,0.18h5.1c0.03-0.45,0.06-1.08,0.06-2.04c0-3.72-0.45-4.8-0.81-5.67l5.01,1.26
		c0.33,0.09,0.63,0.3,0.63,0.51s-0.12,0.33-1.32,1.2c0.03,1.11,0.03,2.55-0.15,4.74h7.26l1.17-1.47c0.24-0.3,0.33-0.39,0.51-0.39
		c0.15,0,0.33,0.12,0.51,0.24l2.43,1.8c0.15,0.12,0.45,0.39,0.45,0.6S462.62,9.24,462.53,9.33z"/>
	<path d="M487.78,13.56c-2.85,0.45-4.95,0.78-8.4,2.22c0.09,0.51,0.24,1.38,0.24,2.79c0,0.78,0,3.21-1.62,3.21
		c-0.87,0-1.56-0.93-1.56-2.13c0-0.36,0.09-1.92,0.09-2.22v-0.3c-1.62,0.93-4.23,2.67-4.23,4.38c0,1.98,2.88,2.1,4.47,2.1
		c1.53,0,3.06-0.21,4.59-0.48c0.39-0.06,1.32-0.18,1.5-0.18c1.08,0,2.16,1.14,2.16,1.89c0,0.69-0.48,1.08-0.9,1.23
		c-0.81,0.27-3.57,0.57-5.34,0.57c-1.89,0-8.19-0.15-8.19-3.99c0-3.03,3.54-5.64,5.82-7.08c-0.21-1.38-0.48-2.88-2.16-2.88
		c-1.8,0-3.18,1.5-4.05,2.97c-0.36,0.6-1.29,2.19-1.65,2.49c-0.18,0.15-0.42,0.24-0.66,0.24c-0.96,0-1.17-1.05-1.17-1.92
		c0-1.11,0.18-1.44,1.68-2.94c1.53-1.53,2.73-3.3,3.87-5.1c-0.54,0.06-0.87,0.09-1.38,0.09c-3.18,0-4.05-2.01-3.99-3.27
		c1.02,0.9,2.13,1.26,4.02,1.26c0.36,0,1.26-0.03,2.61-0.21C473.98,5.49,475,3.66,475,3c0-0.51-0.84-1.02-2.28-1.08
		c0.45-0.51,1.17-1.23,2.79-1.23c1.65,0,3.15,1.05,3.15,1.77c0,0.51-0.15,0.69-0.87,1.47c-0.24,0.24-0.36,0.39-1.26,1.68
		c0.54-0.18,2.82-1.14,3.3-1.32c0.27-0.09,0.48-0.15,0.69-0.15c0.81,0,1.98,0.87,1.98,1.44c0,0.57-0.48,0.87-0.93,1.05
		c-1.86,0.69-3.72,1.08-6.78,1.5c-0.45,0.69-2.52,3.6-2.85,4.23c0.69-0.3,1.68-0.75,3.24-0.75c2.61,0,3.33,1.41,3.75,2.52
		c0.81-0.42,5.04-2.61,5.22-2.7c0.72-0.39,0.78-0.63,0.78-0.87c0-0.39-0.12-0.45-1.29-1.02c0.24-0.15,0.6-0.33,1.32-0.33
		c1.92,0,3.96,1.68,3.96,3.24C488.92,13.32,488.41,13.47,487.78,13.56z"/>
	<path d="M516.35,11.49c-0.93,1.02-2.49,2.76-4.74,4.83v0.69c0,0.27,0.06,6.81,0.06,7.44c0,2.16-1.05,3.21-4.74,3.75
		c-0.15-0.75-0.45-2.58-2.88-3.87v-0.21c0.93,0.12,2.1,0.27,3.69,0.27c0.78,0,0.78-0.33,0.78-1.32c0-0.6,0.03-3.48,0.03-4.11
		c-3.42,2.79-8.58,6.48-16.68,8.25L491.81,27c5.85-2.58,11.25-6.06,15.81-10.53c-5.13,1.62-8.37,2.61-13.23,3.81
		c-0.27,0.75-0.33,0.87-0.66,0.87c-0.27,0-0.39-0.21-0.51-0.48l-1.65-3.87c0.66,0.09,1.17,0.18,2.31,0.18
		c0.87,0,1.77-0.06,2.64-0.12v-5.49c0-1.95-0.09-6.57-0.45-8.28l3.57,1.59h1.62c0.18-0.75,0.66-2.7,0.51-4.5l3.9,1.14
		c0.15,0.03,0.45,0.15,0.45,0.45c0,0.39-0.78,0.6-1.26,0.72c-0.33,0.3-1.83,1.86-2.19,2.19h5.67l0.84-1.08
		c0.18-0.24,0.3-0.42,0.48-0.42c0.12,0,0.27,0.12,0.45,0.24l2.22,1.59c0.21,0.15,0.33,0.42,0.33,0.57c0,0.21-0.09,0.3-1.05,1.08
		v5.28c1.71-2.4,2.01-2.94,2.67-4.47l3,2.88c0.21,0.21,0.3,0.36,0.3,0.6C517.58,11.4,517.25,11.43,516.35,11.49z M508.55,5.4h-9.06
		v2.94h9.06V5.4z M508.55,9.06h-9.06V12h9.06V9.06z M508.55,12.72h-9.06v3.87c0.39-0.03,1.05-0.09,1.83-0.18
		c1.05-0.15,6.09-0.84,7.23-0.99V12.72z"/>
	<path d="M526.62,18.27c-0.39,2.07-0.54,3.69-0.54,4.35c0,0.36,0.21,1.98,0.21,2.31c0,0.66-0.18,1.44-1.17,1.44
		c-1.83,0-3.57-2.88-3.57-9.06c0-1.41,0.03-3.39,1.29-9.51c0.15-0.81,0.27-1.68,0.27-2.19c0-0.96-0.21-1.83-1.38-3.09
		c0.21-0.06,0.39-0.12,0.72-0.12c1.62,0,4.17,1.98,4.17,3.84c0,0.48-0.15,0.96-0.63,1.89c-1.29,2.49-2.4,4.62-2.4,8.13
		c0,0.51,0.12,3.3,0.72,3.3c0.27,0,0.27-0.06,0.93-1.5c1.71-3.78,2.13-4.5,2.52-5.19l0.21,0.06
		C527.79,13.8,526.77,17.49,526.62,18.27z M540.3,23.94c-6.06,0-9.63-1.41-9.63-5.1c0-1.35,0.42-1.89,0.6-2.16
		c0.36,2.16,1.08,4.14,6.42,4.14c1.44,0,2.43-0.12,3.66-0.3c0.33-0.03,0.66-0.06,0.78-0.06c1.35,0,2.43,0.96,2.43,1.86
		C544.56,23.94,542.19,23.94,540.3,23.94z M541.08,7.92c-3.69,0.6-5.52,2.04-5.91,2.37l-0.18-0.15c0.33-0.45,2.31-2.46,2.31-2.73
		c0-0.39-0.69-0.39-0.96-0.39c-1.38,0-3.48,0.54-5.52,1.47c1.32-2.46,5.37-4.02,8.79-4.02c1.56,0,3.75,0.54,3.75,2.04
		C543.36,7.41,542.49,7.71,541.08,7.92z"/>
	<path d="M566.34,21.51c-3.12,1.02-6.42,1.41-9.69,1.41c-0.33,0-1.2,0-2.22-0.09v-0.24c5.7-0.45,14.79-3.51,14.79-9.99
		c0-3.66-3.21-5.19-5.67-5.19c-4.5,0-8.49,3.21-11.1,5.97c-0.81,0.87-1.14,1.23-1.95,1.23c-1.68,0-3.63-2.28-3.63-4.2
		c0-0.93,0.39-1.71,0.6-2.07c0.57,1.23,1.11,2.16,2.04,2.16c0.57,0,1.44-0.3,2.25-0.66c6.15-2.64,8.22-3.57,12.12-3.57
		c4.56,0,8.85,2.46,8.85,7.26C572.73,18.15,568.77,20.7,566.34,21.51z"/>
	<path d="M581.66,21c0,0.24,0.09,1.35,0.09,1.56c0,1.35-0.87,1.74-1.41,1.74c-1.74,0-3.21-2.7-3.21-7.44c0-1.41,0.18-3.45,0.6-5.85
		c0.66-3.87,0.66-3.9,0.66-4.89c0-1.65-0.45-2.55-0.96-3.36c2.43,0.09,4.38,2.31,4.38,3.87c0,0.63-0.24,1.11-0.51,1.68
		c-0.87,1.89-2.1,4.47-2.1,7.74c0,1.2,0.24,2.73,0.72,2.73c0.51,0,2.73-5.43,3.15-6.48l0.18,0.09
		C582.83,14.28,581.66,19.56,581.66,21z M600.86,9.78c-0.36,0.18-2.07,0.66-5.16,1.11c0.18,3.09,0.24,4.2,0.24,5.64
		c0,2.49,0,8.16-8.31,11.7l-0.15-0.21c3.66-2.58,5.64-6.42,5.64-13.65c0-0.81,0-1.83-0.06-3.18c-0.6,0.06-2.19,0.18-2.88,0.18
		c-2.04,0-3.69-0.87-4.71-2.61c0.69,0.24,1.44,0.51,2.88,0.51c1.41,0,3.18-0.24,4.59-0.48c-0.3-4.86-0.45-6.12-3.48-6.12
		c1.14-1.5,2.52-1.5,2.85-1.5c0.6,0,1.98,0.24,2.91,0.93c0.48,0.39,0.63,0.96,0.63,1.44c0,0.33-0.15,1.71-0.18,1.98
		c-0.06,0.66-0.09,1.35-0.06,2.67c1.32-0.36,1.62-0.48,2.82-0.9c0.21-0.06,0.42-0.15,0.75-0.15c0.84,0,2.34,0.63,2.34,1.65
		C601.52,9.36,601.19,9.6,600.86,9.78z"/>
	<path d="M615.09,26.1c-3.36,0-6.3-1.44-6.3-3.99c0-2.16,2.37-3.09,3.93-3.09c1.41,0,3.9,0.78,4.59,4.02
		c1.83-0.45,3.36-2.73,3.36-5.04c0-2.22-1.44-4.32-4.32-4.32c-5.4,0-8.49,4.74-10.11,7.23c-0.36,0.57-0.9,1.41-1.65,1.41
		c-0.93,0-1.38-1.02-1.38-1.95c0-1.17,0.66-1.83,2.22-3.36c1.29-1.26,1.98-2.13,7.29-8.76c0.99-1.23,2.19-2.73,2.55-3.33
		c0.09-0.12,0.15-0.3,0.15-0.39c0-0.12-0.06-0.24-0.27-0.24c-0.57,0-4.59,2.16-4.77,2.31c-0.48,0.36-0.75,0.54-1.14,0.54
		c-1.11,0-2.7-1.14-2.7-2.94c0-0.66,0.24-1.38,0.6-1.89c0.63,1.08,1.11,1.68,2.28,1.68c1.53,0,4.59-0.99,5.46-1.32
		c0.27-0.09,1.26-0.48,1.47-0.48c1.2,0,3,1.47,3,2.43c0,0.75-0.27,0.93-1.8,1.98c-1.11,0.75-6.39,6-7.5,8.01
		c1.8-0.93,3.93-1.95,6.9-1.95c5.49,0,7.05,3.78,7.05,5.94C624,22.02,620.85,26.1,615.09,26.1z M611.55,20.52
		c-0.57,0-1.44,0.39-1.44,1.29c0,1.74,3.24,2.22,3.9,2.22c0.51,0,0.72-0.06,1.02-0.12C614.25,21.09,612.3,20.52,611.55,20.52z"/>
</g>
</svg>
