<?xml version="1.0" encoding="utf-8"?>
<!-- Generator: Adobe Illustrator 25.1.0, SVG Export Plug-In . SVG Version: 6.00 Build 0)  -->
<svg version="1.1" id="レイヤー_1" xmlns="http://www.w3.org/2000/svg" xmlns:xlink="http://www.w3.org/1999/xlink" x="0px"
	 y="0px" viewBox="0 0 254.16 29.82" style="enable-background:new 0 0 254.16 29.82;" xml:space="preserve">
<g>
	<path d="M0,29.82V0h7.53C7.08,0.66,3.24,6.48,3.24,14.91s3.84,14.25,4.29,14.91H0z"/>
	<path d="M22.17,26.31v-0.96h0.69c0.84,0,1.41-0.48,1.41-1.05c0-0.3-0.12-0.75-0.33-1.11l-4.83-8.22l-2.82,3v5.31
		c0,1.38,0.54,2.07,2.13,2.07h0.96v0.96H9.96v-0.96h0.69c1.53,0,2.16-0.63,2.16-2.07V7.47c0-1.35-0.51-2.07-2.16-2.07H9.96V4.41
		h9.42V5.4h-0.96c-1.65,0-2.13,0.63-2.13,2.07v9.09l8.64-9.15c0.48-0.48,0.57-0.75,0.57-1.14c0-0.57-0.39-0.87-1.17-0.87h-1.29V4.41
		h8.64V5.4h-1.32c-1.95,0-2.85,0.69-4.44,2.37l-4.26,4.5l6.54,11.19c0.75,1.29,1.71,1.89,3.15,1.89h1.02v0.96H22.17z"/>
	<path d="M55.79,5.4c-1.47,0-2.28,1.11-2.94,2.31l-5.28,9.57v6c0,1.38,0.54,2.07,2.13,2.07h1.62v0.96H40.31v-0.96h1.62
		c1.47,0,2.13-0.6,2.13-2.07v-5.79L38.09,7.41c-0.9-1.5-1.5-2.01-2.97-2.01h-0.66V4.41h10.08V5.4h-1.41c-0.72,0-1.23,0.36-1.23,0.96
		c0,0.36,0.12,0.75,0.3,1.05l5.04,8.49l4.53-8.19c0.24-0.42,0.27-0.84,0.27-1.11c0-0.75-0.6-1.2-1.26-1.2h-1.47V4.41h7.59V5.4H55.79
		z"/>
	<path d="M79.29,10.38c-1.83-3.51-3.42-4.98-6.15-4.98c-1.53,0-1.89,0.63-1.89,2.07v15.45c0,1.47,0.63,2.43,2.13,2.43h1.68v0.96
		H63.87v-0.96h1.65c1.59,0,2.16-1.05,2.16-2.43V7.47c0-1.59-0.45-2.07-2.07-2.07c-3.33,0-4.98,3.03-5.97,4.98l-0.87-0.36l2.13-5.61
		h17.13l2.13,5.61L79.29,10.38z"/>
	<path d="M90.63,0v29.82H83.1c0.45-0.66,4.29-6.48,4.29-14.91S83.55,0.66,83.1,0H90.63z"/>
	<path d="M127.56,5.34c-0.42,0.81-1.32,2.49-3.45,4.92h1.05l0.93-1.23c0.18-0.24,0.33-0.36,0.48-0.36s0.33,0.12,0.51,0.33l0.96,1.2
		c0.15,0.18,0.27,0.33,0.27,0.45c0,0.33-0.27,0.33-0.45,0.33h-4.38c-0.66,0.75-1.59,1.68-3.33,3.21h2.28l1.29-1.08
		c0.24-0.18,0.3-0.24,0.42-0.24c0.12,0,0.24,0.06,0.39,0.24l2.04,2.22c0.09,0.09,0.18,0.24,0.18,0.42c0,0.33-0.84,0.39-1.47,0.45
		c-0.45,0.24-1.71,0.87-2.55,1.32c0.09,0.06,0.18,0.15,0.18,0.3c0,0.24-0.18,0.36-0.66,0.66v0.72c3.27-0.48,4.98-0.84,5.97-1.05
		v0.24c-1.38,0.69-4.11,1.68-5.94,2.34c0,0.57,0.06,4.98-0.03,5.43c-0.3,1.71-2.1,2.31-3.57,2.46c-0.21-1.35-0.57-2.43-2.73-3.66
		v-0.21c1.56,0.18,1.74,0.18,2.31,0.18c1.02,0,1.35,0,1.35-0.66v-2.61c-1.32,0.42-2.76,0.9-4.11,1.23
		c-0.09,0.36-0.18,0.87-0.51,0.87c-0.18,0-0.33-0.21-0.39-0.33l-1.53-3.09c1.59-0.09,2.1-0.15,6.54-0.78
		c-0.03-0.57-0.12-1.95-0.3-2.97l2.25,0.6c0.39-0.84,0.69-1.44,0.84-2.28h-3.12c-2.28,1.86-4.53,3.3-6.87,4.23l-0.09-0.18
		c0.81-0.57,2.37-1.68,4.71-4.05c-1.02,0.03-1.56,0.06-2.28,0.18l-0.48-1.08c1.05,0.09,1.71,0.12,3.45,0.15
		c0.57-0.6,1.41-1.56,2.67-3.18h-3.75c-2.1,0-2.67,0.12-3.24,0.21l-0.51-1.11c1.44,0.12,2.85,0.18,4.29,0.18h1.17
		c-0.03-0.93,0-2.28,0.03-3.84c-2.16,0-2.73,0.06-3.45,0.18l-0.48-1.08c0.57,0.03,1.71,0.15,3.93,0.18c0-0.51,0.06-2.97-0.39-4.47
		l3.63,0.87c0.33,0.09,0.45,0.15,0.45,0.39c0,0.3-0.12,0.42-0.96,0.84c0,0.18-0.03,1.56-0.03,2.37h0.36l0.63-1.14
		c0.12-0.24,0.27-0.39,0.45-0.39c0.21,0,0.39,0.15,0.54,0.33l0.9,1.08c0.09-0.21,1.05-2.07,1.26-3.27l3.24,2.22
		c0.12,0.09,0.21,0.18,0.21,0.39C128.67,5.22,128.34,5.25,127.56,5.34z M121.08,6.42v3.69c1.17-1.59,1.92-2.85,2.43-3.69H121.08z
		 M137.52,28.47c-1.05-0.63-3.51-2.19-5.28-5.82c-1.77,2.04-4.41,4.23-8.97,5.7l-0.06-0.18c4.53-3.24,6.66-6.12,7.95-8.16
		c-0.75-2.28-1.35-4.95-1.5-8.31c-1.65,2.31-2.61,3.09-3.12,3.48l-0.12-0.09c2.19-3.72,4.38-11.1,4.08-13.83l4.11,1.89
		c0.15,0.06,0.24,0.18,0.24,0.36c0,0.21-0.15,0.33-0.45,0.45c-0.12,0.06-0.63,0.24-0.72,0.27c-0.51,1.32-1.11,2.76-2.16,4.56h4.11
		l1.14-1.71c0.18-0.24,0.27-0.39,0.45-0.39c0.12,0,0.27,0.12,0.54,0.33l2.16,1.71c0.18,0.12,0.3,0.3,0.3,0.48
		c0,0.27-0.27,0.3-0.45,0.3h-3.6l2.04,1.29c0.15,0.09,0.27,0.3,0.27,0.45c0,0.3-0.15,0.36-1.23,0.72c-1.26,4.68-2.49,6.9-3.39,8.4
		c2.7,3.57,5.76,4.56,6.78,4.86v0.27C139.14,26.07,138.9,26.4,137.52,28.47z M131.1,9.51c-0.15,0.27-0.39,0.72-0.93,1.5
		c0.24,1.5,0.72,3.9,2.13,6.75c0.54-1.2,1.65-3.93,1.95-8.25H131.1z"/>
	<path d="M169.09,5.79h-13.05c-1.77,1.62-3.12,2.7-4.41,3.66c4.83-0.24,5.37-0.24,10.2-0.57c-1.11-0.99-1.8-1.5-2.79-1.98l0.06-0.24
		c2.58,0.36,5.88,0.96,7.59,2.43c0.42,0.33,1.26,1.14,1.26,2.07c0,0.99-0.87,1.8-1.8,1.8c-0.66,0-0.78-0.15-1.77-1.35
		c-1.08-1.29-1.41-1.62-1.98-2.19c-6.81,1.38-7.56,1.56-14.07,2.76l3.3,1.35h9.09l0.75-1.02c0.33-0.42,0.42-0.42,0.54-0.42
		c0.18,0,0.3,0.09,0.48,0.21l1.98,1.32c0.06,0.03,0.36,0.24,0.36,0.51c0,0.21-0.06,0.42-0.9,1.11c-0.03,0.72-0.06,1.95,0,4.44
		c0.03,0.81,0.18,4.38,0.18,5.1c0,1.26-0.18,3.48-4.53,4.02c-0.33-2.4-1.86-3.24-2.97-3.75l0.06-0.24c1.08,0.12,2.64,0.24,3.72,0.24
		c0.57,0,0.57-0.15,0.57-0.51v-2.73h-9.51c0,0.93,0.09,4.47,0.09,5.1c0,1.86-2.01,1.86-2.25,1.86c-0.69,0-1.05-0.21-1.05-1.14
		c0-0.54,0.09-2.94,0.12-3.42c0.06-2.25,0.12-4.56,0.12-6.81c0-3.33-0.18-4.5-0.27-5.22c-0.33,0.06-1.77,0.33-2.04,0.39
		c-0.33,0.6-0.39,0.72-0.66,0.72c-0.3,0-0.45-0.27-0.57-0.54l-1.5-3.6c0.6,0.15,1.71,0.45,4.26,0.45c0.63,0,1.11-0.03,2.67-0.09
		c0.39-0.87,0.9-2.19,1.35-3.72h-5.28c-1.83,0-2.49,0.06-3.24,0.21l-0.51-1.11c1.83,0.15,3.96,0.18,4.29,0.18h7.56
		c0-2.28-0.15-2.76-0.66-4.2l4.23,0.84c0.18,0.03,0.54,0.12,0.54,0.45c0,0.3-0.6,0.78-0.93,1.05c-0.03,0.57-0.03,0.84,0,1.86h6.72
		l1.41-1.92c0.18-0.27,0.27-0.42,0.48-0.42c0.15,0,0.36,0.18,0.54,0.33l2.37,1.95c0.15,0.12,0.3,0.27,0.3,0.45
		C169.54,5.76,169.27,5.79,169.09,5.79z M160.96,14.25h-9.51v2.97h9.51V14.25z M160.96,17.94h-9.51v3.15h9.51V17.94z"/>
	<path d="M183.41,25.95l-0.06-0.21c4.41-1.71,9.45-5.25,9.45-11.73c0-4.35-2.73-8.04-8.55-8.04c-0.84,0-1.08,0.06-1.44,0.18
		c2.67,1.41,2.67,2.7,2.67,3.09c0,1.08-2.61,6.63-4.56,9.81c-2.31,3.78-3.45,4.77-4.5,4.77c-0.96,0-1.23-0.45-2.16-1.89
		c-0.39-0.6-0.42-0.63-1.17-1.26c-0.93-0.78-1.35-2.22-1.35-3.63c0-6.63,5.7-12.09,13.2-12.09c5.79,0,11.43,3.39,11.43,9.81
		C196.37,24.12,185.81,25.62,183.41,25.95z M181.79,6.33c-3.45,1.02-7.47,5.34-7.47,10.32c0,1.23,0.57,4.17,1.83,4.17
		c1.23,0,2.7-3.06,3.93-5.67c0.72-1.47,2.46-5.1,2.46-6.87C182.54,7.26,182.03,6.6,181.79,6.33z"/>
	<path d="M222.44,4.68c0,0.51,0.06,3.45,0.06,3.75c-0.06,1.17-1.62,1.26-1.95,1.26c-1.14,0-1.11-0.54-1.08-1.59h-14.82
		c0,7.68-0.54,14.04-6.54,19.26l-0.21-0.09c3.57-5.7,3.57-14.64,3.57-18.21c0-3.84-0.09-4.5-0.45-7.68l3.81,1.53h14.43l0.9-1.02
		c0.27-0.33,0.39-0.39,0.51-0.39c0.18,0,0.36,0.12,0.6,0.3l1.86,1.29c0.15,0.12,0.36,0.3,0.36,0.54
		C223.48,3.96,223.19,4.2,222.44,4.68z M222.68,28.8c-4.29-1.62-5.94-3.48-6.9-4.56c-3.75,1.83-8.52,3.39-10.32,3.99
		c-0.21,0.36-0.36,0.6-0.66,0.6c-0.21,0-0.33-0.21-0.51-0.6l-1.59-3.45c0.42,0.12,0.63,0.18,1.35,0.18c0.78,0,2.31-0.12,3.15-0.18
		v-6.51c-1.11,0.03-1.65,0.06-2.43,0.21l-0.51-1.11c1.41,0.12,2.79,0.18,4.2,0.18c0-0.66,0.03-3.54,0.03-4.14
		c-1.38,0.03-2.01,0.06-2.94,0.21l-0.51-1.11c0.48,0.06,1.53,0.15,3.45,0.18c-0.03-1.74-0.06-2.46-0.45-4.14l3.63,0.87
		c0.54,0.12,0.63,0.27,0.63,0.48c0,0.27-0.09,0.33-0.84,0.87c0,0.96-0.03,1.2-0.03,1.92h3.24c0-1.74,0-2.43-0.3-3.96l3.45,0.75
		c0.48,0.09,0.69,0.27,0.69,0.54c0,0.3-0.21,0.42-0.9,0.84c-0.03,1.38-0.03,1.53-0.03,1.83h1.83l1.14-1.74
		c0.12-0.18,0.24-0.39,0.45-0.39c0.18,0,0.33,0.15,0.54,0.33l2.07,1.74c0.15,0.15,0.3,0.3,0.3,0.48c0,0.27-0.27,0.3-0.45,0.3h-5.88
		c-0.03,0.66,0,3.57,0,4.14h2.58l1.35-1.92c0.09-0.12,0.27-0.39,0.45-0.39c0.15,0,0.27,0.09,0.57,0.33l2.37,1.92
		c0.12,0.12,0.3,0.27,0.3,0.48c0,0.27-0.27,0.3-0.48,0.3h-4.95l2.7,2.1c0.12,0.09,0.33,0.27,0.33,0.48c0,0.51-0.81,0.42-1.35,0.36
		c-3.15,1.14-3.57,1.26-4.05,1.38c2.46,1.59,5.28,2.46,8.19,2.79v0.24C224.56,25.95,223.39,27,222.68,28.8z M219.46,3.63h-14.85
		c0.03,0.54,0.03,3.18,0.03,3.75h14.82V3.63z M212.56,18.27h-2.46v6.24c2.85-0.3,4.35-0.57,5.28-0.75
		C214.72,22.92,213.5,21.24,212.56,18.27z M214.67,13.41h-3.24v4.14h3.24V13.41z M213.22,18.27c0.6,1.08,1.65,2.52,3.57,3.9
		c1.8-2.37,2.04-2.7,2.58-3.9H213.22z"/>
	<path d="M237.03,3.18l0.9-1.11c0.24-0.3,0.36-0.36,0.51-0.36c0.09,0,0.24,0.06,0.51,0.24l1.86,1.29c0.15,0.09,0.3,0.21,0.3,0.45
		c0,0.36-0.33,0.57-0.99,1.02c-0.03,0.93,0.06,5.04,0.06,5.88c0,1.17-0.84,1.65-1.92,1.65s-1.17-0.6-1.11-1.41h-4.86
		c0,0.51,0.03,7.32,0.03,8.64c0,1.2,0.09,6.51,0.09,7.59c0,0.54,0,1.56-2.04,1.56c-0.93,0-1.08-0.39-1.08-1.29
		c0-0.36,0.03-0.54,0.09-2.04c0.06-1.65,0.09-3.39,0.09-5.07c0-13.68,0-13.8-0.03-15.15c-0.06-1.68-0.21-2.79-0.3-3.3l3.3,1.41
		H237.03z M232.29,3.9v2.67h4.92V3.9H232.29z M232.29,7.29v2.82h4.92V7.29H232.29z M233.25,18.36c1.65,0.12,2.67,0.15,4.02,0.18
		c0-1.23,0.03-2.43,0.03-3.66c-1.29,0.03-1.8,0.06-2.46,0.21l-0.48-1.11c1.41,0.12,2.82,0.18,4.26,0.18h6.06l1.02-1.44
		c0.15-0.18,0.27-0.39,0.45-0.39c0.15,0,0.33,0.15,0.57,0.33l1.77,1.47c0.15,0.12,0.3,0.24,0.3,0.45c0,0.27-0.27,0.3-0.45,0.3h-3.06
		v3.66h0.63l0.99-1.41c0.12-0.18,0.27-0.39,0.45-0.39c0.15,0,0.33,0.12,0.54,0.3l1.71,1.44c0.15,0.12,0.3,0.24,0.3,0.45
		c0,0.27-0.24,0.33-0.45,0.33h-4.17c0,1.02,0.15,5.61,0.15,6.54c0,1.59-1.68,1.59-1.95,1.59c-1.11,0-1.11-0.54-1.11-0.99
		c0-0.93,0.09-4.98,0.09-5.82v-1.32h-2.49c-0.15,1.5-0.57,5.64-6.39,7.95l-0.15-0.18c1.86-1.53,3.54-3.69,3.78-7.77
		c-1.83,0-2.46,0.03-3.45,0.18L233.25,18.36z M240.09,14.88c0,0.75-0.03,1.89-0.09,3.66h2.46v-3.66H240.09z M250.02,3.18l0.9-1.14
		c0.27-0.33,0.36-0.33,0.48-0.33c0.09,0,0.18,0,0.54,0.27l1.86,1.35c0.21,0.15,0.36,0.27,0.36,0.51c0,0.24-0.48,0.63-1.05,1.14
		c0,3.09,0.06,16.83,0.06,19.62c0,1.08,0,3.6-3.84,3.93c-0.48-1.59-1.08-2.64-3.06-3.66l0.06-0.24c0.54,0.06,1.05,0.15,2.13,0.15
		c1.53,0,1.83-0.06,1.83-0.87V10.83h-4.86c-0.06,0.96-1.26,1.26-2.1,1.26c-0.57,0-0.93-0.21-0.93-0.87c0-0.51,0.06-2.73,0.06-3.21
		c0-2.1,0-4.86-0.3-6.24l3.48,1.41H250.02z M245.4,3.9v2.67h4.89V3.9H245.4z M245.4,7.29v2.82h4.89V7.29H245.4z"/>
</g>
</svg>
