<?xml version="1.0" encoding="utf-8"?>
<!-- Generator: Adobe Illustrator 25.1.0, SVG Export Plug-In . SVG Version: 6.00 Build 0)  -->
<svg version="1.1" id="レイヤー_1" xmlns="http://www.w3.org/2000/svg" xmlns:xlink="http://www.w3.org/1999/xlink" x="0px"
	 y="0px" viewBox="0 0 622.35 32.79" style="enable-background:new 0 0 622.35 32.79;" xml:space="preserve">
<g>
	<path d="M6.57,15.93v7.35c0,1.35,0.54,2.07,2.13,2.07h0.96v0.96H0v-0.96h0.93c1.62,0,2.16-0.72,2.16-2.07V7.47
		c0-1.38-0.54-2.07-2.16-2.07H0V4.41h9.84c1.5,0,3.84,0.24,5.19,0.87c2.46,1.14,3.12,3.39,3.12,4.83c0,3.33-3.12,5.82-8.07,5.82
		H6.57z M6.57,14.97h3.78c2.94,0,3.93-2.46,3.93-4.92c0-3.15-1.47-4.65-4.26-4.65H8.7c-1.74,0-2.13,0.75-2.13,2.07V14.97z"/>
	<path d="M34.38,26.31l-5.4-10.62h-2.64v7.59c0,1.38,0.54,2.07,2.13,2.07h0.96v0.96h-9.69v-0.96h0.96c1.5,0,2.13-0.6,2.13-2.07V7.47
		c0-1.35-0.51-2.07-2.13-2.07h-0.96V4.41h11.82c4.65,0,7.29,2.04,7.29,5.28c0,1.83-0.93,3.21-1.98,4.08
		c-1.41,1.17-2.76,1.47-3.99,1.74l3.57,7.02c1.26,2.46,2.28,2.82,3.48,2.82h0.42v0.96H34.38z M30.57,5.4h-2.1
		c-1.65,0-2.13,0.63-2.13,2.07v7.26h4.23c3.12,0,4.41-2.28,4.41-5.07C34.98,6.84,33.45,5.4,30.57,5.4z"/>
	<path d="M75.86,20.64c-0.87,0-3.96-0.78-6.75-4.29c-2.16,1.83-4.26,2.7-5.52,3.15l-0.12-0.15c1.89-1.38,3.48-3.27,4.53-4.68
		c-1.47-2.67-2.19-5.76-2.67-8.31h-9.72c0,0.33,0,1.83-0.03,2.52c1.8,0.18,3.99,0.18,4.17,0.18h1.71l0.96-1.26
		c0.06-0.09,0.24-0.39,0.42-0.39c0.21,0,0.45,0.21,0.57,0.33L64.82,9c0.18,0.18,0.3,0.27,0.3,0.48c0,0.27-0.24,0.3-0.45,0.3h-5.46
		c-1.83,0-2.49,0.09-3.24,0.21l-0.39-0.87c-0.09,4.47-0.24,8.88-5.46,13.23l-0.18-0.21c2.31-3.66,2.67-8.94,2.67-12.39
		c0-1.86-0.12-3.75-0.39-5.64l3.63,1.53h9.36c-0.12-0.72-0.57-3.9-0.75-4.53l3.69,0.69c0.33,0.06,0.51,0.09,0.51,0.36
		c0,0.36-0.51,0.72-0.9,0.93c0.06,1.05,0.12,1.68,0.24,2.55h4.41l1.32-1.8c0.09-0.12,0.24-0.36,0.45-0.36c0.21,0,0.42,0.18,0.54,0.3
		l1.83,1.77c0.21,0.21,0.3,0.3,0.3,0.48c0,0.27-0.24,0.33-0.45,0.33h-8.28c0.39,2.55,1.05,4.5,1.62,5.7
		c1.53-2.61,1.71-3.75,1.92-4.86l3.21,1.83c0.27,0.15,0.48,0.27,0.48,0.51c0,0.33-0.42,0.54-1.11,0.75c-0.99,1.5-1.86,2.7-3.09,4.05
		c1.35,1.74,2.67,2.31,3.09,2.31c0.84,0,2.16-2.16,2.37-2.58l0.24,0.03c-0.06,0.69-0.09,2.4-0.09,2.85c0,0.42-0.03,0.93,0.18,1.32
		c0.33,0.63,0.39,0.72,0.39,1.08C77.33,20.1,76.82,20.64,75.86,20.64z M52.73,27.87c-0.9,0-1.62-0.69-1.62-1.59
		c0-0.75,0.3-0.99,1.23-1.8c1.08-0.93,1.71-1.86,2.16-3.18h0.27c0.21,0.57,0.51,1.41,0.51,2.76C55.28,24.75,55.16,27.87,52.73,27.87
		z M64.46,13.59c-0.03,0.57,0.03,3.48,0,3.63c-0.12,0.51-0.75,0.84-1.68,0.84c-0.72,0-0.96-0.24-0.93-1.08h-2.61
		c0.09,0.75,0.18,1.98-1.56,1.98c-1.17,0-1.17-0.66-1.17-1.11c0-0.54,0.09-2.94,0.09-3.42c0-1.47-0.03-1.98-0.21-3.39L59.24,12h2.52
		l0.69-0.84c0.15-0.18,0.27-0.36,0.51-0.36c0.18,0,0.39,0.18,0.48,0.24l1.47,1.14c0.21,0.15,0.36,0.3,0.36,0.51
		C65.27,12.96,64.88,13.32,64.46,13.59z M68.06,28.23c-1.5,0.12-2.97,0.12-6.48,0.12c-2.61,0-4.08-0.21-4.11-3.03
		c0-2.16-0.03-3.99-0.24-5.7l3.3,0.75c0.39,0.09,0.66,0.18,0.66,0.48c0,0.3-0.33,0.54-0.78,0.78c-0.03,0.51-0.09,3.3,0.15,3.66
		c0.21,0.3,2.07,0.3,2.73,0.3c4.08,0,4.26-0.09,4.71-0.78c0.51-0.75,1.02-2.04,1.29-3.18h0.21c0.42,2.88,0.57,2.97,1.44,3.45
		c0.27,0.15,0.36,0.39,0.36,0.72C71.3,27.45,69.38,28.14,68.06,28.23z M61.85,12.72h-2.64v3.54h2.64V12.72z M65.6,24.15
		c-0.99,0-1.29-0.72-1.65-1.68c-0.75-1.89-1.29-2.43-1.8-2.97l0.09-0.21c1.83,0.39,4.92,1.05,4.92,3.15
		C67.16,23.22,66.59,24.15,65.6,24.15z M71.81,5.07c-0.33,0-0.72-0.03-1.32-0.99C69.8,3,69.5,2.52,68.69,1.74l0.03-0.24
		c2.25-0.15,4.5,0.39,4.5,2.07C73.22,4.29,72.68,5.07,71.81,5.07z M75.32,27.03c-1.08,0-1.35-0.72-1.83-1.98
		c-0.57-1.5-1.32-2.73-2.37-3.87l0.06-0.24c3.36,0.66,5.79,2.22,5.79,4.35C76.97,26.43,76.13,27.03,75.32,27.03z"/>
	<path d="M104.65,8.52c-0.18,0.03-0.72,0.09-0.99,0.15c-1.59,0.96-1.77,1.08-3.18,1.71l-0.18-0.15c0.45-1.11,0.84-2.28,1.11-3.48
		h-7.8c0.03,0.84,0.09,4.89,0.09,5.79c0,0.21,0,0.51-0.18,0.78c-0.27,0.36-1.02,0.72-1.71,0.72c-1.14,0-1.14-0.84-1.14-1.23
		c0-0.84,0.06-5.1,0.06-6.06h-7.74c0.09,0.39,0.12,0.9,0.12,1.29c0,2.31-1.29,3.3-2.34,3.3c-0.72,0-1.59-0.51-1.59-1.47
		c0-0.57,0.06-0.6,1.26-1.92c1.32-1.44,1.56-2.61,1.68-3.27h0.24c0.15,0.39,0.3,0.75,0.48,1.35h7.89V3.75h-5.67
		c-2.07,0-2.67,0.12-3.24,0.21l-0.48-1.11c1.41,0.12,2.85,0.18,4.26,0.18h13.2l1.05-1.53c0.18-0.24,0.3-0.39,0.48-0.39
		c0.12,0,0.3,0.12,0.54,0.3l2.1,1.59c0.12,0.09,0.3,0.24,0.3,0.42c0,0.33-0.3,0.33-0.45,0.33h-9.21v2.28h7.83l0.9-0.99
		c0.12-0.15,0.27-0.24,0.36-0.24c0.18,0,0.27,0.09,0.48,0.27l2.37,2.22c0.12,0.12,0.3,0.3,0.3,0.57
		C105.85,8.31,105.37,8.43,104.65,8.52z M104.95,27.33c-1.26,0.75-3.78,0.75-5.76,0.75c-1.14,0-5.04,0-5.67-0.06
		c-2.52-0.21-2.73-1.38-2.73-2.76v-2.49h-5.1c0.06,1.2,0.15,2.43-1.95,2.43c-1.11,0-1.17-0.66-1.17-1.23c0-1.05,0.12-5.64,0.12-6.57
		c0-0.69,0-2.49-0.24-3.93l3.39,1.23h12.63l0.72-1.2c0.09-0.15,0.24-0.39,0.45-0.39c0.18,0,0.3,0.12,0.57,0.3l2.04,1.47
		c0.12,0.09,0.3,0.27,0.3,0.45c0,0.36-0.78,0.9-0.99,1.05c-0.03,0.69-0.03,1.41,0.09,4.14c0,0.3,0.09,1.53,0.09,1.77
		c0,1.26-1.5,1.53-1.95,1.53c-1.11,0-1.14-0.54-1.17-1.05h-4.95c0,0.72,0,1.98,0.06,2.1c0.12,0.27,0.51,0.33,0.63,0.33
		c0.87,0.09,1.5,0.09,4.2,0.09c1.41,0,3.45,0,4.05-0.51c0.48-0.39,1.17-1.92,1.77-4.17h0.24c0.33,3.6,0.42,3.66,1.14,4.23
		c0.27,0.24,0.39,0.42,0.39,0.81C106.15,26.55,105.31,27.12,104.95,27.33z M89.38,12.39h-3.9c-0.18,0-0.75,0-1.35,0.06l-0.51-0.9
		c0.81,0.06,1.77,0.12,2.4,0.12h1.26l0.45-0.78c0.15-0.24,0.24-0.39,0.45-0.39s0.36,0.18,0.54,0.33l0.81,0.78
		c0.18,0.15,0.3,0.27,0.3,0.45C89.83,12.27,89.65,12.39,89.38,12.39z M89.08,9.66h-3.42c-0.81,0-1.08,0.03-1.38,0.09l-0.48-0.9
		c1.05,0.06,2.28,0.09,2.4,0.09h0.81l0.48-0.78c0.09-0.15,0.24-0.39,0.45-0.39c0.15,0,0.36,0.15,0.51,0.3l0.81,0.81
		c0.18,0.18,0.27,0.3,0.27,0.45C89.53,9.63,89.26,9.66,89.08,9.66z M90.79,15.42h-5.1v2.94h5.1V15.42z M90.79,19.08h-5.1v2.97h5.1
		V19.08z M98.62,15.42h-4.95v2.94h4.95V15.42z M98.62,19.08h-4.95v2.97h4.95V19.08z M99.52,9.6h-3.21c-0.12,0-0.72,0.03-1.35,0.09
		l-0.51-0.9c0.75,0.06,1.62,0.09,2.85,0.09l0.51-0.87c0.12-0.18,0.27-0.39,0.45-0.39c0.21,0,0.36,0.12,0.54,0.33l0.87,0.9
		c0.21,0.21,0.3,0.33,0.3,0.45C99.97,9.6,99.7,9.6,99.52,9.6z M100.33,12.33h-3.96c-0.45,0-0.93,0.03-1.38,0.09l-0.48-0.9
		c0.78,0.06,1.59,0.09,2.4,0.09h1.2l0.45-0.75c0.09-0.15,0.24-0.39,0.45-0.39c0.18,0,0.36,0.18,0.54,0.33l0.9,0.78
		c0.12,0.09,0.27,0.27,0.27,0.45C100.72,12.27,100.54,12.33,100.33,12.33z"/>
	<path d="M119.16,8.64c-1.86,0-2.49,0.09-3.27,0.21l-0.48-1.11c1.29,0.12,2.97,0.18,4.29,0.18h3.03c-0.09-4.65-0.24-5.37-0.75-6.87
		l4.32,0.96c0.15,0.03,0.45,0.15,0.45,0.42s-0.39,0.57-1.02,1.05v4.44h3.78l1.5-2.1c0.18-0.24,0.33-0.39,0.48-0.39
		c0.18,0,0.36,0.18,0.54,0.33l2.43,2.1c0.18,0.18,0.3,0.27,0.3,0.48c0,0.27-0.27,0.3-0.48,0.3h-8.25c1.29,2.52,4.77,8.64,9.6,10.44
		l-0.03,0.27c-1.5,0.63-2.13,1.56-2.94,2.82c-3.15-2.22-6.18-8.97-6.96-12.15c-0.03,3.78,0.03,6.93,0.15,10.95h0.3l1.05-1.5
		c0.15-0.21,0.3-0.39,0.48-0.39c0.21,0,0.45,0.21,0.54,0.3l1.62,1.53c0.18,0.15,0.3,0.27,0.3,0.45c0,0.27-0.24,0.33-0.45,0.33h-3.84
		c0.03,0.63,0.12,4.83,0.12,5.04c0,0.45-0.06,0.93-0.3,1.26c-0.27,0.36-1.08,0.84-2.1,0.84c-0.84,0-1.08-0.48-1.08-1.11
		c0-0.27,0.21-5.4,0.24-6.03h-1.41c-1.86,0-2.49,0.06-3.27,0.18l-0.48-1.08c1.29,0.09,2.97,0.18,4.29,0.18h0.87
		c0.03-0.72,0.03-1.68,0.03-2.1v-5.52c-1.68,2.61-5.13,6.9-8.25,8.43c0,0.63,0.03,4.77,0.03,5.07c0,0.57-0.03,0.93-0.3,1.2
		c-0.33,0.39-1.05,0.72-1.77,0.72c-1.26,0-1.26-0.75-1.26-1.32c0-1.26,0.36-9.66,0.36-11.49c0-0.51,0.03-2.55,0.03-3.84
		c-0.63,0.84-2.94,3.9-4.74,4.86l-0.15-0.18c3.45-4.29,6.51-13.56,6.78-15.84l3.93,1.74c0.15,0.06,0.3,0.21,0.3,0.42
		c0,0.33-0.39,0.51-1.29,0.81c-0.48,1.02-1.17,2.43-2.43,4.53l0.93,0.45c0.18,0.09,0.39,0.21,0.39,0.39c0,0.24-0.18,0.45-0.78,0.96
		c-0.06,2.76-0.09,4.86-0.09,6.21c0,0.93,0,1.35,0.06,5.04c3.63-4.53,5.67-9.06,6.9-12.87H119.16z"/>
	<path d="M163.3,20.64c-0.87,0-3.96-0.78-6.75-4.29c-2.16,1.83-4.26,2.7-5.52,3.15l-0.12-0.15c1.89-1.38,3.48-3.27,4.53-4.68
		c-1.47-2.67-2.19-5.76-2.67-8.31h-9.72c0,0.33,0,1.83-0.03,2.52c1.8,0.18,3.99,0.18,4.17,0.18h1.71l0.96-1.26
		c0.06-0.09,0.24-0.39,0.42-0.39c0.21,0,0.45,0.21,0.57,0.33L152.26,9c0.18,0.18,0.3,0.27,0.3,0.48c0,0.27-0.24,0.3-0.45,0.3h-5.46
		c-1.83,0-2.49,0.09-3.24,0.21l-0.39-0.87c-0.09,4.47-0.24,8.88-5.46,13.23l-0.18-0.21c2.31-3.66,2.67-8.94,2.67-12.39
		c0-1.86-0.12-3.75-0.39-5.64l3.63,1.53h9.36c-0.12-0.72-0.57-3.9-0.75-4.53l3.69,0.69c0.33,0.06,0.51,0.09,0.51,0.36
		c0,0.36-0.51,0.72-0.9,0.93c0.06,1.05,0.12,1.68,0.24,2.55h4.41l1.32-1.8c0.09-0.12,0.24-0.36,0.45-0.36c0.21,0,0.42,0.18,0.54,0.3
		l1.83,1.77c0.21,0.21,0.3,0.3,0.3,0.48c0,0.27-0.24,0.33-0.45,0.33h-8.28c0.39,2.55,1.05,4.5,1.62,5.7
		c1.53-2.61,1.71-3.75,1.92-4.86l3.21,1.83c0.27,0.15,0.48,0.27,0.48,0.51c0,0.33-0.42,0.54-1.11,0.75c-0.99,1.5-1.86,2.7-3.09,4.05
		c1.35,1.74,2.67,2.31,3.09,2.31c0.84,0,2.16-2.16,2.37-2.58l0.24,0.03c-0.06,0.69-0.09,2.4-0.09,2.85c0,0.42-0.03,0.93,0.18,1.32
		c0.33,0.63,0.39,0.72,0.39,1.08C164.77,20.1,164.26,20.64,163.3,20.64z M140.17,27.87c-0.9,0-1.62-0.69-1.62-1.59
		c0-0.75,0.3-0.99,1.23-1.8c1.08-0.93,1.71-1.86,2.16-3.18h0.27c0.21,0.57,0.51,1.41,0.51,2.76
		C142.72,24.75,142.6,27.87,140.17,27.87z M151.9,13.59c-0.03,0.57,0.03,3.48,0,3.63c-0.12,0.51-0.75,0.84-1.68,0.84
		c-0.72,0-0.96-0.24-0.93-1.08h-2.61c0.09,0.75,0.18,1.98-1.56,1.98c-1.17,0-1.17-0.66-1.17-1.11c0-0.54,0.09-2.94,0.09-3.42
		c0-1.47-0.03-1.98-0.21-3.39l2.85,0.96h2.52l0.69-0.84c0.15-0.18,0.27-0.36,0.51-0.36c0.18,0,0.39,0.18,0.48,0.24l1.47,1.14
		c0.21,0.15,0.36,0.3,0.36,0.51C152.71,12.96,152.32,13.32,151.9,13.59z M155.5,28.23c-1.5,0.12-2.97,0.12-6.48,0.12
		c-2.61,0-4.08-0.21-4.11-3.03c0-2.16-0.03-3.99-0.24-5.7l3.3,0.75c0.39,0.09,0.66,0.18,0.66,0.48c0,0.3-0.33,0.54-0.78,0.78
		c-0.03,0.51-0.09,3.3,0.15,3.66c0.21,0.3,2.07,0.3,2.73,0.3c4.08,0,4.26-0.09,4.71-0.78c0.51-0.75,1.02-2.04,1.29-3.18h0.21
		c0.42,2.88,0.57,2.97,1.44,3.45c0.27,0.15,0.36,0.39,0.36,0.72C158.74,27.45,156.82,28.14,155.5,28.23z M149.29,12.72h-2.64v3.54
		h2.64V12.72z M153.04,24.15c-0.99,0-1.29-0.72-1.65-1.68c-0.75-1.89-1.29-2.43-1.8-2.97l0.09-0.21c1.83,0.39,4.92,1.05,4.92,3.15
		C154.6,23.22,154.03,24.15,153.04,24.15z M159.25,5.07c-0.33,0-0.72-0.03-1.32-0.99c-0.69-1.08-0.99-1.56-1.8-2.34l0.03-0.24
		c2.25-0.15,4.5,0.39,4.5,2.07C160.66,4.29,160.12,5.07,159.25,5.07z M162.76,27.03c-1.08,0-1.35-0.72-1.83-1.98
		c-0.57-1.5-1.32-2.73-2.37-3.87l0.06-0.24c3.36,0.66,5.79,2.22,5.79,4.35C164.41,26.43,163.57,27.03,162.76,27.03z"/>
	<path d="M187,29.82V0h7.53c-0.45,0.66-4.29,6.48-4.29,14.91s3.84,14.25,4.29,14.91H187z"/>
	<path d="M209.17,26.31v-0.96h0.69c0.84,0,1.41-0.48,1.41-1.05c0-0.3-0.12-0.75-0.33-1.11l-4.83-8.22l-2.82,3v5.31
		c0,1.38,0.54,2.07,2.13,2.07h0.96v0.96h-9.42v-0.96h0.69c1.53,0,2.16-0.63,2.16-2.07V7.47c0-1.35-0.51-2.07-2.16-2.07h-0.69V4.41
		h9.42V5.4h-0.96c-1.65,0-2.13,0.63-2.13,2.07v9.09l8.64-9.15c0.48-0.48,0.57-0.75,0.57-1.14c0-0.57-0.39-0.87-1.17-0.87h-1.29V4.41
		h8.64V5.4h-1.32c-1.95,0-2.85,0.69-4.44,2.37l-4.26,4.5l6.54,11.19c0.75,1.29,1.71,1.89,3.15,1.89h1.02v0.96H209.17z"/>
	<path d="M221.81,4.41h16.11l1.98,4.95l-0.75,0.36c-2.37-3-3.72-4.32-7.5-4.32h-1.05c-1.71,0-2.13,0.72-2.13,2.07v7.17h2.61
		c1.71,0,3.63-0.66,3.63-2.97v-0.69h0.99v8.52h-0.99v-0.81c0-1.35-1.05-3.09-3.33-3.09h-2.91v7.68c0,1.41,0.6,2.07,2.13,2.07h1.56
		c4.11,0,6.69-3.48,7.62-4.71l0.69,0.45l-1.98,5.22h-16.68v-0.96h0.96c1.53,0,2.13-0.63,2.13-2.07V7.47c0-1.41-0.57-2.07-2.13-2.07
		h-0.96V4.41z"/>
	<path d="M259.44,26.31l-13.29-18.6v15.12c0,1.35,0.69,2.52,2.31,2.52h0.78v0.96h-7.14v-0.96h0.75c1.59,0,2.34-0.9,2.34-2.52V7.47
		c0-1.98-1.86-2.07-2.7-2.07h-0.63V4.41h6.27l11.01,15.45V8.07c0-2.67-1.59-2.67-2.82-2.67V4.41h6.63V5.4c-0.75,0-2.85,0-2.85,2.67
		v18.24H259.44z"/>
	<path d="M285.31,10.38c-1.83-3.51-3.42-4.98-6.15-4.98c-1.53,0-1.89,0.63-1.89,2.07v15.45c0,1.47,0.63,2.43,2.13,2.43h1.68v0.96
		h-11.19v-0.96h1.65c1.59,0,2.16-1.05,2.16-2.43V7.47c0-1.59-0.45-2.07-2.07-2.07c-3.33,0-4.98,3.03-5.97,4.98l-0.87-0.36l2.13-5.61
		h17.13l2.13,5.61L285.31,10.38z"/>
	<path d="M298.88,26.31v-0.96h1.38c0.69,0,1.38-0.36,1.38-1.2c0-0.39-0.15-1.05-0.27-1.38l-1.5-4.29h-7.62l-1.47,4.8
		c-0.06,0.24-0.18,0.57-0.18,0.84c0,0.72,0.6,1.23,1.62,1.23h1.35v0.96h-7.35v-0.96h0.9c0.69,0,2.01-0.06,2.73-2.4l5.82-18.69
		l2.79-0.39l6.63,18.9c0.39,1.14,1.11,2.58,2.88,2.58h0.69v0.96H298.88z M295.82,6.99l-3.27,10.5h6.96L295.82,6.99z"/>
	<path d="M318.84,26.88c-4.71,0-9.39-3.6-9.39-10.77c0-6.33,3.9-12.27,9.15-12.27c0.87,0,1.77,0.15,2.61,0.42
		c0.81,0.27,1.26,0.42,1.56,0.42c0.21,0,0.69-0.12,0.93-0.21c0.54-0.18,0.72-0.42,1.05-0.6l2.28,5.52l-0.84,0.36
		c-0.78-1.35-1.35-2.22-2.49-3.18c-1.53-1.29-3.21-1.83-4.68-1.83c-1.5,0-3.3,0.66-4.59,2.64c-1.02,1.59-1.5,4.38-1.5,6.66
		c0,4.38,1.74,10.41,7.62,10.41c2.01,0,4.29-0.72,6.15-4.68l0.84,0.45C326.61,22.17,324.39,26.88,318.84,26.88z"/>
	<path d="M350.34,20.55v3.15c0,1.05,0.57,1.62,1.59,1.62h0.87v0.99h-8.49v-0.99h1.02c0.9,0,1.44-0.66,1.44-1.47v-3.3h-7.53v-0.84
		l9.72-15.84h1.38v15.72h2.76v0.96H350.34z M346.77,9.27l-6.33,10.32h6.33V9.27z"/>
	<path d="M355.08,25.71c0.27-0.93,0.66-2.16,4.44-7.08c2.49-3.24,4.74-6.18,4.74-9.84c0-2.7-1.71-4.05-3.21-4.05
		c-1.35,0-2.4,1.14-2.4,2.19c0,0.63,0.27,0.9,0.69,1.29c0.42,0.42,0.57,0.72,0.57,1.38c0,1.71-1.14,2.25-2.1,2.25
		c-1.47,0-2.19-1.17-2.19-2.37c0-2.43,2.1-5.61,6.36-5.61c3.84,0,6.27,2.67,6.27,5.76c0,3.3-2.34,5.37-5.04,7.53
		c-1.53,1.2-3.99,3.18-5.61,5.82h5.01c3.18,0,4.17-1.83,4.95-3.81l0.87,0.24l-1.65,6.9h-11.7V25.71z"/>
	<path d="M372.96,7.74l-0.27,6.63c0.84-0.81,2.34-2.28,4.83-2.28c3.06,0,6.48,2.79,6.48,6.93c0,4.44-3.96,7.86-7.71,7.86
		c-2.7,0-5.55-1.8-5.55-4.68c0-1.5,0.84-2.31,2.1-2.31c1.02,0,1.95,0.54,1.95,2.01c0,0.42-0.48,2.1-0.48,2.37
		c0,0.87,0.78,1.71,1.86,1.71c3.21,0,3.87-4.77,3.87-7.17c0-1.83-0.36-5.34-3.36-5.34c-0.87,0-2.43,0.18-4.29,2.91l-0.72-0.54
		l0.42-11.43h10.59l-0.66,3.33H372.96z"/>
	<path d="M392.86,26.88c-4.23,0-6.69-5.61-6.69-11.52c0-5.85,2.43-11.49,6.69-11.49c4.2,0,6.69,5.52,6.69,11.49
		C399.55,21.21,397.12,26.88,392.86,26.88z M394.33,5.82c-0.33-0.54-0.75-1.08-1.47-1.08c-2.7,0-2.88,8.04-2.88,10.62
		c0,2.58,0.18,10.62,2.88,10.62c2.7,0,2.88-8.04,2.88-10.62C395.74,14.55,395.74,8.25,394.33,5.82z"/>
	<path d="M409.3,0v29.82h-7.53c0.45-0.66,4.29-6.48,4.29-14.91S402.22,0.66,401.77,0H409.3z"/>
</g>
<g>
	<path d="M430.76,32.79c-4.56-3.55-5.86-8.02-5.86-11.62c0-3.6,1.3-8.06,5.86-11.62l0.22,0.34c-1.03,1.1-4.32,4.68-4.32,11.28
		s3.31,10.18,4.32,11.28L430.76,32.79z"/>
	<path d="M453.82,29.57c-3.48-2.78-4.49-7.27-4.66-8.02c0.02,2.52,0.14,6.58,0.14,9.1c0,0.53,0,1.61-1.56,1.61
		c-1.06,0-1.06-0.67-1.06-1.03c0-0.05,0.02-0.74,0.05-1.13c0.12-3.05,0.14-4.08,0.17-6.67c-1.2,1.75-3.74,4.85-6.86,6.36l-0.1-0.14
		c0.84-0.77,3.43-3.12,5.52-8.86h-0.98c-1.54,0-2.04,0.07-2.47,0.14c0.05,0.12,0.07,0.26,0.07,0.5c0,1.15-0.98,1.37-1.27,1.37
		c-0.79,0-0.86-0.53-1.03-1.82c-0.05-0.29-0.17-1.18-0.58-1.75c0,1.82,0.05,9.87,0.05,11.5c0,0.43,0,1.46-1.54,1.46
		c-0.96,0-0.96-0.43-0.96-0.98c0-2.59,0.24-6.72,0.24-9.31c-0.43,0.82-1.78,3.19-3.77,4.82l-0.14-0.12
		c2.59-4.3,3.55-9.26,3.67-10.42c-1.27,0-1.92,0.02-2.71,0.17l-0.41-0.89c1.37,0.12,2.86,0.14,3.38,0.14c0-3.12-0.17-4.37-0.34-5.42
		l3.02,0.7c0.22,0.05,0.38,0.1,0.38,0.29c0,0.22-0.19,0.36-0.82,0.79c0,0.38-0.02,1.3-0.02,1.97c0,0.24-0.02,1.44-0.02,1.68h0.31
		l0.72-1.3c0.05-0.1,0.19-0.31,0.36-0.31c0.19,0,0.29,0.12,0.46,0.29l1.13,1.25c0.17,0.17,0.22,0.24,0.22,0.38
		c0,0.22-0.17,0.26-0.36,0.26h-2.83c-0.05,1.66-0.05,1.85-0.02,2.42c0.67,0.19,1.61,0.58,2.35,1.46c1.42,0.12,3.02,0.14,3.36,0.14
		h1.99v-4.08h-2.76c-0.91,1.56-2.18,2.98-2.66,3.5l-0.17-0.12c1.42-3.29,1.75-6.55,1.75-7.1c0-0.41-0.05-0.72-0.07-0.98l2.95,1.15
		c0.19,0.07,0.29,0.22,0.29,0.36c0,0.29-0.26,0.41-0.84,0.6c-0.41,0.96-0.62,1.42-0.94,2.02h2.45c-0.07-3.94-0.07-4.2-0.53-5.38
		l3.24,0.67c0.17,0.02,0.46,0.12,0.46,0.34c0,0.19-0.14,0.41-0.84,0.86c-0.02,0.55-0.05,3-0.07,3.5h1.63l0.98-1.46
		c0.1-0.14,0.24-0.29,0.38-0.29c0.14,0,0.26,0.12,0.43,0.24l1.82,1.46c0.17,0.12,0.24,0.24,0.24,0.36c0,0.24-0.22,0.26-0.38,0.26
		h-5.11c0,1.37-0.02,3.43,0,4.08h2.4l1.1-1.58c0.1-0.12,0.22-0.29,0.36-0.29c0.14,0,0.34,0.12,0.46,0.24l1.8,1.58
		c0.12,0.1,0.24,0.22,0.24,0.36c0,0.24-0.22,0.26-0.36,0.26h-5.76c1.8,3.65,4.78,5.57,6.67,6.19v0.17
		C454.9,27.6,454.23,28.51,453.82,29.57z"/>
	<path d="M457.97,32.79l-0.22-0.34c1.01-1.1,4.32-4.68,4.32-11.28s-3.29-10.18-4.32-11.28l0.22-0.34c4.56,3.55,5.86,8.02,5.86,11.62
		C463.83,24.77,462.53,29.23,457.97,32.79z"/>
	<path d="M501.92,13.68c-0.05,1.08-0.24,4.66-1.18,6c-0.91,1.3-2.76,1.51-3.36,1.54c-0.29-2.16-1.15-2.74-1.8-3.17l0.05-0.19
		c1.58,0.31,1.75,0.34,2.09,0.34c0.82,0,1.7,0,1.7-5.38v-0.26h-3.12c-0.6,5.76-4.01,7.66-6.91,8.98c0,1.18,0.05,5.18,0.05,6
		c0,0.48-0.1,1.51-1.49,1.51c-1.01,0-0.96-0.53-0.91-1.51h-2.16c0.05,1.51,0.07,2.42-1.56,2.42c-0.7,0-0.96-0.26-0.96-0.7
		c0-1.87,0.22-10.15,0.22-11.83c0-3.98-0.1-4.56-0.36-6.14l2.9,1.22h1.85l0.77-0.79c0.14-0.17,0.24-0.24,0.31-0.24
		c0.1,0,0.17,0.05,0.34,0.19l1.68,1.3c0.12,0.1,0.24,0.22,0.24,0.38c0,0.22-0.12,0.38-0.89,0.91c-0.02,1.68-0.05,3.36-0.05,5.02
		c0,0.31,0.02,1.7,0.02,1.99c3.72-3.02,4.1-6.5,4.25-8.71c-1.34,0-1.87,0.02-2.57,0.17l-0.38-0.89c1.44,0.12,3.14,0.14,3.41,0.14
		h5.04l0.86-0.86c0.14-0.12,0.24-0.19,0.38-0.19c0.14,0,0.29,0.07,0.38,0.14l1.82,1.34c0.17,0.12,0.26,0.26,0.26,0.41
		C502.85,13.15,502.25,13.49,501.92,13.68z M487.06,13.08h-2.18v6.58h2.18V13.08z M487.06,20.23h-2.18v6.72h2.18V20.23z
		 M501.39,23.81c-0.05,1.13,0,2.52,0.02,3.46c0,0.55,0.12,3.07,0.12,3.6c0,1.2-1.54,1.27-1.68,1.27c-1.01,0-1.01-0.67-0.94-1.82
		h-5.38c0.02,0.84,0.05,1.73-1.46,1.73c-1.01,0-1.01-0.62-1.01-0.94c0-0.41,0.14-4.34,0.14-5.18c0-1.18-0.05-3.34-0.24-4.46
		l2.81,1.03h4.92l0.84-0.98c0.14-0.17,0.24-0.24,0.38-0.24c0.14,0,0.26,0.1,0.38,0.17l1.63,1.15c0.12,0.1,0.29,0.22,0.29,0.41
		C502.23,23.28,501.87,23.5,501.39,23.81z M498.92,23.06h-5.38v6.67h5.38V23.06z"/>
	<path d="M516.05,18.05h-4.1v2.11c1.18,0.12,4.06,0.91,4.06,2.93c0,0.65-0.38,1.46-1.3,1.46c-0.82,0-1.01-0.5-1.37-1.46
		c-0.58-1.49-0.84-1.99-1.39-2.59c0.02,5.21,0.02,5.62,0.02,6.53c0,0.55,0.07,3,0.07,3.5c0,0.48,0,1.7-1.7,1.7
		c-0.82,0-0.89-0.48-0.89-0.94c0-0.82,0.24-4.68,0.24-5.54v-2.93c-1.39,2.04-3.1,3.84-5.18,5.14l-0.12-0.14
		c2.18-2.57,4.32-7.2,4.87-9.77h-1.51c-1.46,0-1.99,0.05-2.59,0.17l-0.38-0.89c1.46,0.12,3.14,0.14,3.41,0.14h1.51l-0.02-3.86
		c-2.57,0.43-3.6,0.5-4.42,0.55l-0.05-0.17c3.1-0.98,6.46-2.52,7.73-4.03l2.57,1.78c0.12,0.07,0.29,0.22,0.29,0.36
		c0,0.34-0.65,0.29-1.15,0.26c-0.67,0.24-1.22,0.43-2.71,0.79c0,0.67,0.02,3.7,0.02,4.32h0.72l1.13-1.44
		c0.19-0.24,0.29-0.31,0.38-0.31c0.14,0,0.34,0.17,0.43,0.26l1.58,1.44c0.14,0.12,0.22,0.24,0.22,0.36
		C516.41,18.02,516.19,18.05,516.05,18.05z M525.36,15.19c-0.02,0.96-0.02,7.58,0.07,11.38c0,0.41,0.1,2.16,0.1,2.52
		c0,1.49-1.61,1.49-1.78,1.49c-1.01,0-0.96-0.62-0.91-1.78h-3.48c0.05,0.72,0.05,1.1-0.05,1.42c-0.19,0.55-0.96,0.89-1.61,0.89
		c-0.86,0-0.94-0.53-0.94-0.91c0-0.12,0.05-0.46,0.05-0.62c0.07-1.61,0.12-8.64,0.12-9.55c0-4.83-0.1-6.14-0.31-7.51l2.86,1.27h3.1
		l0.89-1.1c0.1-0.14,0.22-0.22,0.34-0.22c0.07,0,0.19,0.07,0.36,0.19l1.82,1.34c0.07,0.05,0.22,0.19,0.22,0.31
		C526.2,14.69,525.77,14.93,525.36,15.19z M522.86,14.35h-3.5v13.87h3.5V14.35z"/>
	<path d="M548.81,16.06c-0.14,0.02-0.58,0.07-0.79,0.12c-1.27,0.77-1.42,0.86-2.54,1.37l-0.14-0.12c0.36-0.89,0.67-1.82,0.89-2.78
		h-6.24c0.02,0.67,0.07,3.91,0.07,4.63c0,0.17,0,0.41-0.14,0.62c-0.22,0.29-0.82,0.58-1.37,0.58c-0.91,0-0.91-0.67-0.91-0.98
		c0-0.67,0.05-4.08,0.05-4.85h-6.19c0.07,0.31,0.1,0.72,0.1,1.03c0,1.85-1.03,2.64-1.87,2.64c-0.58,0-1.27-0.41-1.27-1.18
		c0-0.46,0.05-0.48,1.01-1.54c1.06-1.15,1.25-2.09,1.34-2.62h0.19c0.12,0.31,0.24,0.6,0.38,1.08h6.31v-1.82h-4.54
		c-1.66,0-2.14,0.1-2.59,0.17l-0.38-0.89c1.13,0.1,2.28,0.14,3.41,0.14h10.56l0.84-1.22c0.14-0.19,0.24-0.31,0.38-0.31
		c0.1,0,0.24,0.1,0.43,0.24l1.68,1.27c0.1,0.07,0.24,0.19,0.24,0.34c0,0.26-0.24,0.26-0.36,0.26h-7.37v1.82h6.26l0.72-0.79
		c0.1-0.12,0.22-0.19,0.29-0.19c0.14,0,0.22,0.07,0.38,0.22l1.9,1.78c0.1,0.1,0.24,0.24,0.24,0.46
		C549.77,15.89,549.38,15.98,548.81,16.06z M549.05,31.11c-1.01,0.6-3.02,0.6-4.61,0.6c-0.91,0-4.03,0-4.54-0.05
		c-2.02-0.17-2.18-1.1-2.18-2.21v-1.99h-4.08c0.05,0.96,0.12,1.94-1.56,1.94c-0.89,0-0.94-0.53-0.94-0.98c0-0.84,0.1-4.51,0.1-5.26
		c0-0.55,0-1.99-0.19-3.14l2.71,0.98h10.11l0.58-0.96c0.07-0.12,0.19-0.31,0.36-0.31c0.14,0,0.24,0.1,0.46,0.24l1.63,1.18
		c0.1,0.07,0.24,0.22,0.24,0.36c0,0.29-0.62,0.72-0.79,0.84c-0.02,0.55-0.02,1.13,0.07,3.31c0,0.24,0.07,1.22,0.07,1.42
		c0,1.01-1.2,1.22-1.56,1.22c-0.89,0-0.91-0.43-0.94-0.84h-3.96c0,0.58,0,1.58,0.05,1.68c0.1,0.22,0.41,0.26,0.5,0.26
		c0.7,0.07,1.2,0.07,3.36,0.07c1.13,0,2.76,0,3.24-0.41c0.38-0.31,0.94-1.54,1.42-3.34h0.19c0.26,2.88,0.34,2.93,0.91,3.38
		c0.22,0.19,0.31,0.34,0.31,0.65C550.01,30.48,549.34,30.94,549.05,31.11z M536.59,19.15h-3.12c-0.14,0-0.6,0-1.08,0.05l-0.41-0.72
		c0.65,0.05,1.42,0.1,1.92,0.1h1.01l0.36-0.62c0.12-0.19,0.19-0.31,0.36-0.31s0.29,0.14,0.43,0.26l0.65,0.62
		c0.14,0.12,0.24,0.22,0.24,0.36C536.95,19.06,536.81,19.15,536.59,19.15z M536.35,16.97h-2.74c-0.65,0-0.86,0.02-1.1,0.07
		l-0.38-0.72c0.84,0.05,1.82,0.07,1.92,0.07h0.65l0.38-0.62c0.07-0.12,0.19-0.31,0.36-0.31c0.12,0,0.29,0.12,0.41,0.24l0.65,0.65
		c0.14,0.14,0.22,0.24,0.22,0.36C536.71,16.94,536.49,16.97,536.35,16.97z M537.72,21.58h-4.08v2.35h4.08V21.58z M537.72,24.51
		h-4.08v2.38h4.08V24.51z M543.98,21.58h-3.96v2.35h3.96V21.58z M543.98,24.51h-3.96v2.38h3.96V24.51z M544.7,16.92h-2.57
		c-0.1,0-0.58,0.02-1.08,0.07l-0.41-0.72c0.6,0.05,1.3,0.07,2.28,0.07l0.41-0.7c0.1-0.14,0.22-0.31,0.36-0.31
		c0.17,0,0.29,0.1,0.43,0.26l0.7,0.72c0.17,0.17,0.24,0.26,0.24,0.36C545.06,16.92,544.85,16.92,544.7,16.92z M545.35,19.1h-3.17
		c-0.36,0-0.74,0.02-1.1,0.07l-0.38-0.72c0.62,0.05,1.27,0.07,1.92,0.07h0.96l0.36-0.6c0.07-0.12,0.19-0.31,0.36-0.31
		c0.14,0,0.29,0.14,0.43,0.26l0.72,0.62c0.1,0.07,0.22,0.22,0.22,0.36C545.66,19.06,545.52,19.1,545.35,19.1z"/>
	<path d="M573.64,15.58h-7.13l1.39,0.79c0.1,0.05,0.31,0.17,0.31,0.36c0,0.31-0.31,0.34-0.86,0.38c-0.89,0.84-2.38,1.75-2.62,1.87
		h3.79l1.01-1.37c0.14-0.19,0.22-0.29,0.36-0.29c0.14,0,0.34,0.17,0.43,0.24l1.56,1.37c0.12,0.12,0.24,0.22,0.24,0.38
		c0,0.22-0.19,0.24-0.36,0.24h-7.66v1.97h2.74l0.91-1.2c0.17-0.22,0.26-0.31,0.38-0.31c0.1,0,0.24,0.07,0.48,0.26l1.61,1.2
		c0.14,0.1,0.26,0.22,0.26,0.38c0,0.22-0.22,0.24-0.36,0.24h-6.02l0.02,2.14h5.62l1.13-1.46c0.14-0.19,0.24-0.31,0.36-0.31
		c0.14,0,0.24,0.07,0.46,0.26l1.63,1.46c0.12,0.12,0.22,0.22,0.22,0.36c0,0.24-0.19,0.26-0.36,0.26h-8.47
		c1.7,1.51,5.11,3.58,9.07,3.98v0.14c-1.08,0.6-1.94,1.66-2.3,2.57c-4.3-1.66-6.58-5.35-7.34-6.7c0.02,1.97,0.1,5.26,0.1,6
		c0,0.41-0.02,0.6-0.19,0.82c-0.22,0.29-0.82,0.65-1.51,0.65c-0.91,0-0.91-0.65-0.91-1.01c0-0.07,0.12-4.68,0.14-5.57
		c-1.7,2.06-4.92,4.68-9.5,5.81l-0.05-0.17c3.24-1.78,5.16-3.89,7.03-6.53h-3.67c-1.46,0-1.99,0.05-2.59,0.17l-0.38-0.89
		c1.44,0.12,3.14,0.14,3.41,0.14h5.79V22.1h-4.32c-1.46,0-1.99,0.07-2.59,0.17l-0.38-0.89c1.46,0.14,3.14,0.14,3.41,0.14h3.89
		c0-0.31-0.02-1.68-0.02-1.97h-5.18c-1.49,0-1.99,0.07-2.59,0.17l-0.41-0.89c1.46,0.14,3.17,0.14,3.43,0.14h2.33
		c-0.24-0.22-0.29-0.31-0.62-1.25c-0.38-1.13-0.79-1.7-1.13-2.16h-2.42c-1.46,0-1.99,0.07-2.59,0.17l-0.38-0.89
		c0.94,0.1,1.8,0.14,2.42,0.14h5.23c0-3.29-0.12-3.82-0.34-4.87l2.98,0.7c0.17,0.05,0.41,0.12,0.41,0.36c0,0.34-0.41,0.5-0.79,0.65
		c-0.05,1.2-0.05,1.75-0.05,3.07V15h1.54c0-1.51,0-3.43-0.38-4.82l3.02,0.62c0.24,0.05,0.41,0.14,0.41,0.36
		c0,0.31-0.36,0.48-0.77,0.65c0,0.5-0.05,2.74-0.02,3.19h0.53c0.22-0.34,1.42-2.42,1.58-4.63l2.78,1.27
		c0.22,0.1,0.36,0.22,0.36,0.36c0,0.41-0.65,0.38-0.86,0.38c-1.39,1.2-2.14,1.82-3.26,2.62h3.12l1.08-1.39
		c0.12-0.14,0.26-0.31,0.38-0.31s0.22,0.05,0.48,0.26l1.7,1.39c0.19,0.17,0.26,0.26,0.26,0.38C574,15.55,573.8,15.58,573.64,15.58z
		 M557.48,14.78c-0.77,0-0.98-0.53-1.39-1.56c-0.07-0.17-0.5-1.27-1.46-2.23l0.1-0.14c2.21,0.41,3.98,1.03,3.98,2.59
		C558.71,14.21,558.16,14.78,557.48,14.78z M558.37,15.58c1.25,0.41,2.93,0.94,2.93,2.4c0,0.6-0.38,0.86-0.6,1.01h3.29
		c0.31-0.62,0.94-2.33,1.13-3.41H558.37z"/>
	<path d="M585.61,23.98c-0.72,0-1.03-0.62-1.49-1.49c-0.24-0.48-0.89-1.51-1.58-2.3c-0.02,4.25-0.02,5.3-0.02,5.62
		c0,0.74,0.12,4.13,0.12,4.82c0,1.08-1.3,1.27-1.7,1.27c-0.94,0-0.96-0.65-0.96-1.06c0-0.67,0.07-1.78,0.1-2.45
		c0.02-0.98,0.02-1.51,0.05-6.24c-2.06,1.75-3.67,2.59-4.37,2.98l-0.12-0.17c1.85-1.63,5.42-5.52,7.03-9.43h-3.29
		c-1.46,0-1.99,0.05-2.59,0.17l-0.38-0.89c1.42,0.12,3.02,0.14,3.31,0.14h0.48c0-2.93-0.31-3.98-0.58-4.83l3.41,0.79
		c0.17,0.05,0.43,0.1,0.43,0.34c0,0.26-0.43,0.5-0.84,0.74c-0.02,0.46-0.05,0.94,0,2.95h0.26l0.7-0.77
		c0.14-0.17,0.22-0.26,0.36-0.26c0.17,0,0.34,0.14,0.43,0.22l1.68,1.42c0.07,0.05,0.19,0.17,0.19,0.31c0,0.41-0.55,0.55-1.18,0.7
		c-0.5,0.74-1.22,1.73-2.45,3.14c0.7,0.12,4.2,0.86,4.2,3C586.81,23.4,586.21,23.98,585.61,23.98z M597.8,30.67h-10.46
		c-1.46,0-1.99,0.05-2.59,0.17l-0.38-0.89c1.46,0.14,3.14,0.14,3.41,0.14h2.28c0-3.72,0-7.46-0.02-11.18h-1.44
		c-1.46,0-1.99,0.05-2.59,0.14l-0.41-0.86c1.46,0.12,3.17,0.14,3.43,0.14h1.01c-0.05-6.43-0.05-6.65-0.72-8.23l3.48,0.67
		c0.19,0.05,0.62,0.14,0.62,0.46c0,0.29-0.53,0.6-0.86,0.79c-0.02,0.58-0.02,5.18-0.02,6.31h1.49l1.13-1.63
		c0.1-0.14,0.22-0.31,0.36-0.31c0.1,0,0.34,0.19,0.43,0.26l1.75,1.63c0.12,0.1,0.22,0.22,0.22,0.36c0,0.22-0.19,0.26-0.36,0.26
		h-5.02c0,1.78,0.02,9.6,0.02,11.18h1.51l1.39-1.75c0.17-0.22,0.26-0.31,0.38-0.31c0.14,0,0.36,0.17,0.46,0.26l1.66,1.75
		c0.14,0.14,0.22,0.24,0.22,0.36C598.16,30.65,597.95,30.67,597.8,30.67z"/>
	<path d="M619.66,31.9c-3-0.91-4.54-2.33-5.54-3.55c-1.92,1.08-5.57,2.52-8.21,3.19c-0.07,0.46-0.34,0.65-0.5,0.65
		c-0.14,0-0.22-0.14-0.36-0.38l-1.37-2.5c0.41,0.02,0.72,0.05,1.13,0.05c0.77,0,1.51-0.07,2.26-0.17v-2.04
		c-1.49,0.72-3.55,1.73-6.91,2.28v-0.17c3.36-1.32,6.36-3.43,7.9-5.14h-4.49c-1.49,0-1.99,0.05-2.59,0.17l-0.41-0.89
		c1.46,0.12,3.17,0.14,3.43,0.14h6.84c0.02-0.6,0-1.08-0.02-1.54c-0.48,0.24-0.84,0.36-1.3,0.46c-0.26-1.42-0.67-1.9-1.37-2.5
		c0,0.36,0.02,2.04-0.02,2.23c-0.19,0.74-1.3,0.77-1.44,0.77c-0.53,0-0.74-0.22-0.74-0.84c0-0.77,0.05-3.31,0.07-4.2h-1.56
		c0,0.58,0.05,3.26,0,3.67c-0.07,0.84-1.22,0.94-1.49,0.94c-0.24,0-0.74,0-0.74-0.7c0-0.67,0.05-1.75,0.05-2.42
		c0-0.98,0-2.02-0.12-2.98l2.38,0.91H606c0.02-0.67,0.02-1.51,0.02-1.78h-2.52c-1.46,0-1.99,0.07-2.59,0.17l-0.38-0.89
		c0.38,0.05,0.65,0.05,1.42,0.1c0.46-1.37,0.84-3.48,0.79-4.71l2.3,0.82c0.07,0.02,0.29,0.12,0.29,0.29c0,0.26-0.36,0.36-0.53,0.41
		c-0.12,0.29-0.22,0.48-0.43,0.86h1.61c-0.07-1.13-0.07-1.37-0.31-2.5l2.76,0.58c0.14,0.02,0.38,0.1,0.38,0.31
		c0,0.31-0.22,0.41-0.72,0.65v0.96h1.13l0.74-1.1c0.12-0.17,0.24-0.29,0.36-0.29c0.14,0,0.26,0.1,0.46,0.24l1.3,1.1
		c0.12,0.1,0.24,0.19,0.24,0.36c0,0.22-0.19,0.26-0.36,0.26h-3.86V15h1.94l0.77-1.06c0.1-0.14,0.22-0.29,0.36-0.29
		c0.17,0,0.26,0.1,0.46,0.24l1.32,1.06c0.12,0.1,0.24,0.22,0.24,0.38c0,0.22-0.22,0.24-0.36,0.24h-4.73c0,0.29,0.02,1.51,0.02,1.78
		h1.7l0.6-0.74c0.12-0.14,0.24-0.26,0.41-0.26c0.12,0,0.29,0.1,0.38,0.17l1.22,0.89c0.22,0.17,0.26,0.36,0.26,0.43
		c0,0.29-0.34,0.5-0.67,0.74c0,0.41,0.02,1.66,0,1.97c-0.02,0.31-0.12,0.48-0.19,0.6l1.61,0.41c0.41,0.1,0.58,0.22,0.58,0.43
		c0,0.29-0.26,0.41-0.82,0.67v0.89h5.42l0.96-1.2c0.14-0.17,0.22-0.31,0.36-0.31c0.14,0,0.24,0.1,0.46,0.26l1.54,1.2
		c0.14,0.12,0.24,0.22,0.24,0.36c0,0.22-0.22,0.26-0.36,0.26h-4.56l2.04,1.22c0.19,0.12,0.36,0.22,0.36,0.43
		c0,0.36-0.34,0.34-0.94,0.29c-1.08,0.43-2.71,0.89-3.36,1.03c2.62,1.7,4.92,2.09,6.96,2.09l0.02,0.14
		C621.72,29.59,620.45,30.1,619.66,31.9z M606,13.2h-2.02c-0.48,0.6-0.96,1.18-1.68,1.78c0.5,0.02,1.54,0.02,1.63,0.02h2.09
		C606.02,14.47,606.02,13.78,606,13.2z M608.11,17.93c0,0.62,0,1.22,0.02,1.85c0.1,0.02,0.94,0.12,1.32,0.12c0.5,0,0.53,0,0.5-1.97
		H608.11z M611.81,24.12h-0.24c-0.62,0.7-1.49,1.27-2.18,1.7v3.05c1.58-0.24,2.66-0.43,4.46-0.86
		C613.46,27.51,612.62,26.38,611.81,24.12z M612.36,24.12c0.26,0.41,0.89,1.42,2.38,2.54c0.29-0.26,1.44-1.51,1.92-2.54H612.36z
		 M616.22,12.7c-0.02,0.82,0.05,4.42,0.05,5.16c0,1.13-1.03,1.25-1.63,1.25c-0.62,0-0.65-0.43-0.65-0.65c0-0.58,0.07-3.05,0.07-3.55
		c0-1.61-0.02-2.38-0.29-3.67l2.64,0.58c0.24,0.05,0.38,0.12,0.38,0.31C616.8,12.34,616.66,12.43,616.22,12.7z M620.45,12.14
		c0,0.58-0.05,4.61,0.02,6.53c0.07,1.82,0.12,3.1-2.98,3.74c-0.17-0.82-0.43-1.94-1.85-2.86v-0.17c0.36,0.05,1.39,0.12,1.78,0.12
		s0.55-0.02,0.6-0.48c0.05-0.38,0.05-3.24,0.05-3.79c0-3.02-0.05-3.48-0.34-4.8l3.07,0.7c0.26,0.07,0.38,0.17,0.38,0.34
		C621.19,11.76,620.69,12.05,620.45,12.14z"/>
</g>
</svg>
